<svg width="135" height="127" viewBox="0 0 135 127" fill="none" xmlns="http://www.w3.org/2000/svg">
<path d="M66.2686 0.515739C41.8686 1.34408 20.0063 11.7659 4.92314 31.8187C4.29343 32.6392 3.90733 33.6631 3.8314 34.7143L0.660151 82.7887C0.192885 86.8809 2.90364 89.8927 6.6387 89.3445C25.802 85.1733 41.2183 86.5548 54.2594 92.5128C67.3006 98.4719 78.1836 109.136 87.7395 124.417C89.4035 127.071 93.5477 127.417 95.5896 125.072L132.969 81.3683C134.536 79.5457 134.629 76.5191 133.177 74.5942C129.361 69.5567 125.29 64.9251 121.064 60.7184L127.874 46.5691C128.946 44.383 128.296 41.4277 126.418 39.959C121.718 36.3061 116.896 33.1141 112.018 30.2896L115.033 15.3755C115.516 12.9869 114.173 10.3344 112.018 9.42095C97.69 3.94648 80.2794 0.168668 66.2686 0.515739ZM66.7885 10.841C78.6358 10.5036 91.3289 12.9224 104.324 17.7788L94.9658 64.3234C80.1958 57.466 65.4594 54.0905 50.8283 55.692C37.403 57.1612 24.232 62.8972 11.3176 72.7913L13.7091 37.2816C26.9014 20.4218 45.4765 11.4479 66.7885 10.841ZM53.0118 15.0474C49.5277 17.5126 47.1647 21.2449 45.8375 25.4269H41.2625V32.4197H44.5897C44.5493 33.0327 44.5513 33.6376 44.5378 34.1674H41.2626V41.16H45.5256C46.8096 45.7891 49.3647 49.8607 53.3237 52.2499C59.2156 55.8059 67.4904 54.802 76.4582 47.9888L72.5592 42.3072C64.8238 48.1839 59.8551 48.12 56.6509 46.186C54.9765 45.1754 53.6102 43.4001 52.6479 41.16H67.8803V34.1674H51.1922C51.1872 33.5742 51.2572 32.9564 51.2961 32.4198H67.8802V25.4271H53.1676C54.1107 23.4938 55.3184 21.8548 56.7548 20.8383C60.0553 18.5032 64.7657 18.0757 72.4551 23.9523L76.4061 18.3253C69.2108 12.8515 60.504 9.8611 53.0117 15.0474H53.0118ZM109.834 41.2151C112.22 42.7074 114.595 44.3117 116.957 46.0225L96.4215 88.4154C83.8534 77.8059 70.5293 70.6352 56.079 68.3664C51.9599 67.7192 47.7697 67.4979 43.498 67.6561C46.2871 66.9385 49.0701 66.4327 51.868 66.1264C66.1354 64.5647 80.8124 68.1781 96.3695 76.3969C99.0739 77.8309 102.838 75.9538 103.492 72.8457L109.834 41.2151ZM116.229 70.6606C118.379 72.9412 120.464 75.3346 122.519 77.8717L92.2625 113.272C82.7305 99.5885 71.621 89.0253 58.2105 82.8977C53.4147 80.7068 48.3647 79.1224 43.0301 78.0902C46.9937 77.9255 50.8496 78.1533 54.6234 78.7458C68.6877 80.9543 81.8157 88.2722 94.8099 100.434C97.0779 102.542 101.171 101.734 102.556 98.9043L116.229 70.6606Z" fill="#001E50" fill-opacity="0.1"/>
</svg>
