<svg width="237" height="60" viewBox="0 0 237 60" fill="none" xmlns="http://www.w3.org/2000/svg">
<path d="M0 30C0 13.4315 13.4315 0 30 0H237V60H30C13.4315 60 0 46.5685 0 30Z" fill="#00B0F0"/>
<circle cx="30" cy="30" r="30" fill="#00B0F0"/>
<path d="M64.792 30.674H66.248C67.69 30.674 68.11 31.458 68.11 32.382C68.11 33.488 67.284 34.146 66.234 34.146C65.394 34.146 64.694 33.978 63.966 33.572L63.56 34.496C64.218 34.93 65.128 35.21 66.248 35.21C68.054 35.21 69.328 34.118 69.328 32.452C69.328 31.276 68.754 30.436 67.914 30.086V30.058C68.488 29.792 69.118 28.938 69.118 27.93C69.118 26.306 68.124 25.27 66.332 25.27C65.436 25.27 64.442 25.522 63.784 25.9L64.148 26.824C64.862 26.502 65.534 26.334 66.318 26.334C67.368 26.334 67.9 27.146 67.9 28C67.9 28.868 67.438 29.61 66.318 29.61H64.792V30.674ZM74.7994 31.864V33.656C74.2254 34.146 73.6654 34.23 73.0494 34.23C72.2794 34.23 71.9434 33.824 71.9434 33.166C71.9434 32.27 72.5314 31.864 73.5254 31.864H74.7994ZM75.9474 35V30.646C75.9474 29.036 75.1214 28.042 73.3994 28.042C72.4474 28.042 71.6634 28.35 71.0894 28.798L71.5654 29.596C72.0554 29.218 72.7274 29.022 73.3574 29.022C74.3654 29.022 74.7994 29.708 74.7994 30.618V31.052H73.4274C72.1254 31.052 70.7674 31.444 70.7674 33.166C70.7674 34.468 71.5654 35.21 72.7974 35.21C73.6514 35.21 74.3934 34.846 74.9674 34.384H74.9954L75.1074 35H75.9474ZM82.3473 35H83.4813V28.252H78.1613V35H79.2953V29.19H82.3473V35ZM86.8132 33.502L86.8832 32.354V28.252H85.7492V35H87.0372L89.2212 31.234L89.9912 29.75H90.0192L89.9492 31.234V35H91.0832V28.252H89.7952L87.4152 32.354L86.8412 33.502H86.8132ZM92.9728 31.626C92.9728 33.74 94.0088 35.21 96.0248 35.21C96.6828 35.21 97.4668 34.986 98.0128 34.706L97.7048 33.852C97.3268 34.02 96.6688 34.23 96.0668 34.23C94.7788 34.23 94.1488 32.984 94.1488 31.626C94.1488 30.268 94.7508 29.022 96.0668 29.022C96.6688 29.022 97.3268 29.232 97.7048 29.4L98.0128 28.546C97.4668 28.266 96.6828 28.042 96.0248 28.042C94.0088 28.042 92.9728 29.512 92.9728 31.626ZM103.333 31.864V33.656C102.759 34.146 102.199 34.23 101.583 34.23C100.813 34.23 100.477 33.824 100.477 33.166C100.477 32.27 101.065 31.864 102.059 31.864H103.333ZM104.481 35V30.646C104.481 29.036 103.655 28.042 101.933 28.042C100.981 28.042 100.197 28.35 99.6226 28.798L100.099 29.596C100.589 29.218 101.261 29.022 101.891 29.022C102.899 29.022 103.333 29.708 103.333 30.618V31.052H101.961C100.659 31.052 99.3006 31.444 99.3006 33.166C99.3006 34.468 100.099 35.21 101.331 35.21C102.185 35.21 102.927 34.846 103.501 34.384H103.529L103.641 35H104.481ZM105.913 28.252V29.19H107.817V35H108.951V29.19H110.883V28.252H105.913ZM112.45 28.252V35H115.04C116.51 35 117.308 34.286 117.308 32.942C117.308 31.584 116.51 30.87 115.04 30.87H113.584V28.252H112.45ZM113.584 31.808H114.956C115.726 31.808 116.132 32.27 116.132 32.942C116.132 33.628 115.726 34.062 114.956 34.062H113.584V31.808ZM118.69 31.626C118.69 33.74 119.726 35.21 121.742 35.21C122.4 35.21 123.184 34.986 123.73 34.706L123.422 33.852C123.044 34.02 122.386 34.23 121.784 34.23C120.496 34.23 119.866 32.984 119.866 31.626C119.866 30.268 120.468 29.022 121.784 29.022C122.386 29.022 123.044 29.232 123.422 29.4L123.73 28.546C123.184 28.266 122.4 28.042 121.742 28.042C119.726 28.042 118.69 29.512 118.69 31.626ZM130.378 35V28.252H127.634C126.136 28.252 125.31 29.064 125.31 30.352C125.31 31.402 125.898 32.172 126.906 32.382L124.918 34.846V35H126.122L128.138 32.466H129.23V35H130.378ZM129.23 31.5H127.704C126.92 31.5 126.5 31.01 126.5 30.352C126.5 29.694 126.92 29.218 127.704 29.218H129.23V31.5ZM140.261 35H141.395V28.252H140.261V31.08H137.209V28.252H136.075V35H137.209V32.06H140.261V35ZM147.219 31.864V33.656C146.645 34.146 146.085 34.23 145.469 34.23C144.699 34.23 144.363 33.824 144.363 33.166C144.363 32.27 144.951 31.864 145.945 31.864H147.219ZM148.367 35V30.646C148.367 29.036 147.541 28.042 145.819 28.042C144.867 28.042 144.083 28.35 143.509 28.798L143.985 29.596C144.475 29.218 145.147 29.022 145.777 29.022C146.785 29.022 147.219 29.708 147.219 30.618V31.052H145.847C144.545 31.052 143.187 31.444 143.187 33.166C143.187 34.468 143.985 35.21 145.217 35.21C146.071 35.21 146.813 34.846 147.387 34.384H147.415L147.527 35H148.367ZM153.313 28.252V29.19H155.217V35H156.351V29.19H158.283V28.252H153.313ZM164.977 31.92C165.019 31.682 165.047 31.29 165.047 30.954C165.047 29.456 164.249 28.042 162.275 28.042C160.329 28.042 159.363 29.778 159.363 31.598C159.363 33.544 160.273 35.21 162.401 35.21C163.479 35.21 164.249 34.86 164.795 34.468L164.361 33.614C163.899 33.95 163.353 34.23 162.499 34.23C161.309 34.23 160.469 33.152 160.469 31.92H164.977ZM160.525 31.052C160.595 29.932 161.239 29.022 162.275 29.022C163.353 29.022 163.927 29.778 163.927 30.73C163.927 30.828 163.927 30.954 163.913 31.052H160.525ZM166.514 31.626C166.514 33.74 167.55 35.21 169.566 35.21C170.224 35.21 171.008 34.986 171.554 34.706L171.246 33.852C170.868 34.02 170.21 34.23 169.608 34.23C168.32 34.23 167.69 32.984 167.69 31.626C167.69 30.268 168.292 29.022 169.608 29.022C170.21 29.022 170.868 29.232 171.246 29.4L171.554 28.546C171.008 28.266 170.224 28.042 169.566 28.042C167.55 28.042 166.514 29.512 166.514 31.626ZM172.672 28.252V29.19H174.576V35H175.71V29.19H177.642V28.252H172.672ZM182.33 31.738V30.702H178.634V31.738H182.33ZM184.615 36.68L184.713 35H188.983L189.095 36.68H189.907L190.089 34.034H189.403V28.252H185.189L185.035 30.982C184.965 32.424 184.685 33.404 184.167 34.034H183.621L183.789 36.68H184.615ZM185.427 34.034C185.819 33.46 185.973 32.508 186.085 31.01L186.197 29.19H188.269V34.034H185.427ZM193.059 29.638C193.465 29.232 194.123 29.022 194.753 29.022C196.055 29.022 196.475 30.254 196.475 31.626C196.475 32.998 196.055 34.23 194.753 34.23C194.123 34.23 193.465 34.02 193.059 33.614V29.638ZM191.911 28.252V37.772H193.059V34.524H193.087C193.535 34.888 194.095 35.21 195.061 35.21C196.895 35.21 197.651 33.586 197.651 31.626C197.651 29.666 196.895 28.042 195.061 28.042C194.095 28.042 193.325 28.518 192.877 28.868H192.863L192.723 28.252H191.911ZM203.11 31.864V33.656C202.536 34.146 201.976 34.23 201.36 34.23C200.59 34.23 200.254 33.824 200.254 33.166C200.254 32.27 200.842 31.864 201.836 31.864H203.11ZM204.258 35V30.646C204.258 29.036 203.432 28.042 201.71 28.042C200.758 28.042 199.974 28.35 199.4 28.798L199.876 29.596C200.366 29.218 201.038 29.022 201.668 29.022C202.676 29.022 203.11 29.708 203.11 30.618V31.052H201.738C200.436 31.052 199.078 31.444 199.078 33.166C199.078 34.468 199.876 35.21 201.108 35.21C201.962 35.21 202.704 34.846 203.278 34.384H203.306L203.418 35H204.258ZM207.536 33.502L207.606 32.354V28.252H206.472V35H207.76L209.944 31.234L210.714 29.75H210.742L210.672 31.234V35H211.806V28.252H210.518L208.138 32.354L207.564 33.502H207.536ZM209.356 25.844C208.642 25.844 208.152 25.606 207.83 25.396L207.508 26.124C207.914 26.53 208.558 26.894 209.356 26.894C210.168 26.894 210.812 26.53 211.218 26.124L210.896 25.396C210.574 25.606 210.07 25.844 209.356 25.844ZM215.207 32.018H216.635C217.475 32.018 217.853 32.34 217.853 33.012C217.853 33.67 217.447 34.062 216.621 34.062H215.207V32.018ZM214.073 28.252V35H216.719C218.301 35 219.043 34.342 219.043 33.096C219.043 32.256 218.595 31.738 217.881 31.5V31.486C218.371 31.276 218.749 30.786 218.749 30.058C218.749 28.784 217.951 28.252 216.383 28.252H214.073ZM215.207 29.19H216.341C217.237 29.19 217.559 29.498 217.559 30.184C217.559 30.856 217.167 31.094 216.327 31.094H215.207V29.19Z" fill="black"/>
<path d="M31.1083 44.4018V34.8852C33.065 34.4918 34.49 33.0652 34.8833 31.1085H44.4016C43.9266 38.6502 38.6483 43.9285 31.1083 44.4018ZM15.5983 31.1085H25.1166C25.51 33.0652 26.935 34.4918 28.8916 34.8835V44.4018C21.3516 43.9285 16.0733 38.6518 15.5983 31.1085ZM30 32.7802C28.31 32.7802 27.22 31.6885 27.22 30.0002C27.22 28.3118 28.31 27.2185 30 27.2185C31.69 27.2185 32.78 28.3118 32.78 30.0018C32.78 31.6918 31.69 32.7802 30 32.7802ZM30 15.5502C38.1316 15.5502 43.905 20.9852 44.4016 28.8935H34.885C34.4216 26.5835 32.5183 25.0035 30 25.0035C27.4816 25.0035 25.58 26.5818 25.115 28.8918H15.5983C16.095 20.9835 21.8683 15.5502 30 15.5502ZM30 13.3335C20.3166 13.3335 13.3333 20.3168 13.3333 30.0002C13.3333 39.6835 20.3166 46.6668 30 46.6668C39.6833 46.6668 46.6666 39.6835 46.6666 30.0002C46.6666 20.3168 39.6833 13.3335 30 13.3335Z" fill="#001E50"/>
</svg>
