<svg width="160" height="43" viewBox="0 0 160 43" fill="none" xmlns="http://www.w3.org/2000/svg">
<path d="M3.11168 31.782H0L6.17721 20.6143H9.36799L11.6468 31.782H8.53514L8.16595 29.7889H4.17747L3.11168 31.782ZM5.25645 27.7144H7.80996L7.18806 23.9655L5.25645 27.7144ZM13.919 20.6143H20.3006C21.3444 20.6143 22.0674 20.8516 22.474 21.3241C22.8827 21.7987 23.0014 22.5195 22.8321 23.4864C22.7201 24.1237 22.4915 24.6423 22.1443 25.0423C21.7993 25.4422 21.4104 25.7191 20.9774 25.8795C21.7993 26.1146 22.2828 26.6882 22.4322 27.6024C22.4805 27.932 22.4674 28.3144 22.3904 28.7517C22.2103 29.7933 21.8301 30.5602 21.2565 31.0481C20.6808 31.5381 19.8721 31.782 18.8305 31.782H11.9698L13.919 20.6143ZM19.6018 28.2726C19.7139 27.6353 19.4502 27.3167 18.8129 27.3167H15.6221L15.231 29.5494H18.4217C19.0612 29.5494 19.4348 29.2307 19.5469 28.5912L19.6018 28.2726ZM19.9051 23.8051C20.0149 23.1678 19.7512 22.8491 19.114 22.8491H16.4022L16.0111 25.0818H18.7228C19.3623 25.0818 19.7359 24.7632 19.8479 24.1237L19.9051 23.8051ZM27.9282 31.782H25.056L26.6163 22.8491H23.2651L23.6562 20.6143H33.2286L32.8396 22.8491H29.4884L27.9282 31.782ZM40.5199 23.6468C40.632 23.0074 40.3683 22.6887 39.731 22.6887H37.0193C36.3798 22.6887 36.004 23.0074 35.8942 23.6468L35.002 28.7517C34.8899 29.3889 35.1536 29.7098 35.7931 29.7098H38.5048C39.1421 29.7098 39.5179 29.3889 39.6299 28.7517L40.5199 23.6468ZM42.4999 28.7517C42.3065 29.868 41.9109 30.6789 41.3176 31.1843C40.7243 31.6897 39.8695 31.9424 38.7531 31.9424H34.7646C33.6483 31.9424 32.8814 31.6897 32.4638 31.1843C32.0463 30.6789 31.9364 29.868 32.1298 28.7517L33.022 23.6468C33.2176 22.5283 33.6109 21.7174 34.2043 21.212C34.7976 20.7088 35.6524 20.4561 36.771 20.4561H40.7594C41.8758 20.4561 42.6427 20.7088 43.0602 21.212C43.4756 21.7174 43.5876 22.5283 43.3921 23.6468L42.4999 28.7517ZM53.7511 25.5609L50.8219 29.5494H48.587L47.0509 25.5609L45.9654 31.782H43.0932L45.0424 20.6143H48.0728L50.2351 26.519L54.4565 20.6143H57.4869L55.5377 31.782H52.6656L53.7511 25.5609ZM65.5759 23.6468C65.688 23.0074 65.4243 22.6887 64.787 22.6887H62.0753C61.4358 22.6887 61.0601 23.0074 60.9502 23.6468L60.058 28.7517C59.9481 29.3889 60.2096 29.7098 60.8491 29.7098H63.5608C64.1981 29.7098 64.5739 29.3889 64.686 28.7517L65.5759 23.6468ZM67.5559 28.7517C67.3625 29.868 66.9692 30.6789 66.3736 31.1843C65.7803 31.6897 64.9255 31.9424 63.8091 31.9424H59.8207C58.7043 31.9424 57.9374 31.6897 57.5199 31.1843C57.1023 30.6789 56.9925 29.868 57.1858 28.7517L58.078 23.6468C58.2736 22.5283 58.667 21.7174 59.2603 21.212C59.8536 20.7088 60.7085 20.4561 61.827 20.4561H65.8155C66.9318 20.4561 67.6987 20.7088 68.1163 21.212C68.5338 21.7174 68.6437 22.5283 68.4481 23.6468L67.5559 28.7517ZM72.219 24.9236H76.0471C77.1634 24.9236 77.9304 25.1763 78.3479 25.6795C78.7654 26.185 78.8753 26.9959 78.6819 28.1144L78.5984 28.5912C78.4028 29.7098 78.0073 30.5207 77.4139 31.0261C76.8206 31.5293 75.9658 31.782 74.8494 31.782H68.1492L70.0984 20.6143H78.9522L78.5632 22.8491H72.5794L72.219 24.9236ZM75.8098 28.1144C75.9196 27.4749 75.6581 27.1563 75.0187 27.1563H71.8279L71.4103 29.5494H74.6011C75.2406 29.5494 75.6142 29.2307 75.7262 28.5912L75.8098 28.1144ZM88.7333 31.782H85.8612L87.0588 24.9236L82.0331 31.782H79.0005L80.9519 20.6143H83.8241L82.6242 27.4749L87.6522 20.6143H90.6847L88.7333 31.782ZM93.9282 29.4702C93.7415 30.235 93.392 30.8393 92.8778 31.281C92.3636 31.7227 91.7901 31.9424 91.1506 31.9424C90.5133 31.9424 89.92 31.8897 89.375 31.782L89.7508 29.6285H90.4694C90.6715 29.6285 90.8517 29.5603 91.0078 29.4219C91.166 29.2835 91.2671 29.1143 91.3132 28.9121L93.2404 20.6143H102.094L100.145 31.782H97.2729L98.8331 22.8491H95.4819L93.9282 29.4702ZM105.738 24.4445H109.568C110.684 24.4445 111.451 24.6973 111.867 25.2027C112.284 25.7059 112.396 26.519 112.201 27.6353L112.034 28.5912C111.838 29.7098 111.445 30.5207 110.851 31.0261C110.258 31.5293 109.403 31.782 108.287 31.782H101.584L103.534 20.6143H106.406L105.738 24.4445ZM109.328 27.6353C109.44 26.9959 109.177 26.6772 108.539 26.6772H105.349L104.848 29.5494H108.038C108.676 29.5494 109.052 29.2307 109.161 28.5912L109.328 27.6353ZM120.096 31.782H117.224L119.173 20.6143H127.869L127.48 22.8491H121.656L120.096 31.782ZM135.162 23.6468C135.272 23.0074 135.009 22.6887 134.371 22.6887H131.66C131.02 22.6887 130.646 23.0074 130.534 23.6468L129.642 28.7517C129.532 29.3889 129.796 29.7098 130.433 29.7098H133.145C133.785 29.7098 134.158 29.3889 134.27 28.7517L135.162 23.6468ZM137.142 28.7517C136.947 29.868 136.553 30.6789 135.958 31.1843C135.367 31.6897 134.51 31.9424 133.393 31.9424H129.405C128.289 31.9424 127.522 31.6897 127.104 31.1843C126.687 30.6789 126.577 29.868 126.772 28.7517L127.662 23.6468C127.858 22.5283 128.251 21.7174 128.844 21.212C129.44 20.7088 130.295 20.4561 131.411 20.4561H135.4C136.516 20.4561 137.283 20.7088 137.7 21.212C138.118 21.7174 138.228 22.5283 138.032 23.6468L137.142 28.7517ZM140.959 20.6143H149.336L147.776 29.5494H148.972L148.22 33.8565H145.508L145.71 31.782H139.489L138.966 33.8565H136.255L137.006 29.5494H138.043C138.412 29.1978 138.714 28.8022 138.944 28.3605C139.177 27.9188 139.333 27.5189 139.419 27.1563L140.959 20.6143ZM144.904 29.5494L146.073 22.8491H143.122L142.186 26.8376C142.041 27.4859 141.768 28.1408 141.366 28.8C141.199 29.0769 141.023 29.3252 140.836 29.5494H144.904ZM151.378 31.782H148.266L154.446 20.6143L157.471 20.5637L157.86 21.7196L159.913 31.782H156.803L156.434 29.7889H152.444L151.378 31.782ZM153.525 27.7144H156.076L155.456 23.9655L153.525 27.7144Z" fill="#2D3941"/>
<path d="M158.145 11.4559C149.959 11.4273 140.248 10.4032 132.79 8.30902C124.617 6.01701 117.952 3.36022 108.815 2.83721C100.201 2.34717 91.5753 2.01974 81.9678 3.86565C71.6834 5.84341 62.6451 10.5197 50.0863 13.6248C37.6132 16.7123 18.9585 13.8336 6.74036 19.6152L6.86781 19.3801C19.2816 12.4228 36.9342 15.4443 49.8929 12.0118C62.9505 8.55074 72.5646 3.08553 82.983 1.18029C91.9818 -0.463454 100.686 -0.114049 108.839 0.573772C117.877 1.33411 125.013 3.50525 133.029 6.25874C140.345 8.77269 150.016 11.2581 158.145 11.4559Z" fill="#2D3941"/>
<path fill-rule="evenodd" clip-rule="evenodd" d="M158.296 11.8456C150.11 11.817 139.993 11.7753 132.798 10.103C124.625 7.85049 117.96 6.63746 108.823 6.12324C100.209 5.64199 92.1132 5.51234 82.5057 7.32748C72.2214 9.27008 62.6534 12.2719 50.0946 15.3243C37.5886 18.3634 18.7603 14.2629 6.54211 19.9874L6.7333 19.6402C19.1492 12.8125 36.9359 17.113 49.9012 13.7399C62.9588 10.3403 72.573 4.96955 82.9914 3.09947C91.9902 1.4843 100.695 1.82931 108.847 2.50394C117.886 3.2511 125.021 5.38268 133.037 8.08782C141.436 11.0391 150.167 11.65 158.296 11.8456Z" fill="#006DB7"/>
<path fill-rule="evenodd" clip-rule="evenodd" d="M158.175 11.6089C149.99 11.5804 140.279 10.5739 132.82 8.51701C124.648 6.26676 117.983 3.65391 108.846 3.14189C100.231 2.66064 91.606 2.3398 81.9985 4.15275C71.7142 6.09535 62.6758 10.6882 50.117 13.7405C37.6418 16.7709 18.9585 13.9932 6.74036 19.676L6.89418 19.3947C19.3079 12.556 36.9627 15.5271 49.9237 12.1539C62.9813 8.75434 72.5954 3.38582 83.0138 1.51354C92.0126 -0.101634 100.717 0.243374 108.87 0.91801C117.908 1.66517 125.043 3.79675 133.06 6.50189C140.375 8.97189 150.047 11.4133 158.175 11.6089Z" fill="white"/>
<path fill-rule="evenodd" clip-rule="evenodd" d="M159.279 12.1236C151.031 12.1016 141.954 12.4048 133.994 11.071C117.405 8.28894 98.4978 7.01439 81.8252 9.46022C71.4925 10.9765 63.999 13.1498 51.4468 15.8C38.8947 18.4502 18.5721 15.8945 6.15173 20.6147L6.50333 19.9819C18.7742 14.4419 38.0091 17.2723 50.3085 14.7826C64.1089 11.9895 72.2199 8.26916 82.6889 6.80782C91.7338 5.54645 101.097 5.38163 109.321 5.90904C118.436 6.49358 125.721 7.91976 133.829 10.0337C141.233 11.9609 151.089 11.9719 159.279 12.1236Z" fill="#D22229"/>
<path d="M22.2611 41.5279C22.2523 41.5762 22.2369 41.6136 22.2149 41.64C22.1929 41.6663 22.1534 41.6795 22.0963 41.6795H20.2284C19.9954 41.6795 19.8108 41.6466 19.6746 41.5806C19.5384 41.5169 19.4329 41.429 19.3626 41.3191C19.2922 41.2093 19.2527 41.0862 19.2417 40.9456C19.2307 40.8049 19.2395 40.6599 19.2659 40.5061L19.657 38.2646C19.6834 38.1108 19.7295 37.9635 19.7955 37.8207C19.8614 37.6801 19.9515 37.5548 20.0636 37.4449C20.1778 37.335 20.3141 37.2471 20.4745 37.1834C20.6349 37.1175 20.8195 37.0845 21.0283 37.0845H22.8588C22.9137 37.0845 22.9489 37.0955 22.9599 37.1197C22.9709 37.1439 22.9709 37.1834 22.9621 37.234L22.8918 37.6471C22.8808 37.7042 22.8676 37.7438 22.8478 37.7636C22.8302 37.7833 22.7907 37.7921 22.7335 37.7921H20.9909C20.8239 37.7921 20.7008 37.8295 20.6195 37.9042C20.5404 37.9767 20.4877 38.0844 20.4635 38.225L20.3426 38.9129H22.3226C22.3797 38.9129 22.4127 38.9238 22.4259 38.9458C22.4369 38.9678 22.4369 39.0095 22.4259 39.0711L22.3644 39.4315C22.3556 39.4842 22.3402 39.5216 22.3204 39.5457C22.3006 39.5699 22.2633 39.5809 22.2061 39.5809H20.2262L20.0592 40.5346C20.0372 40.6731 20.0548 40.7785 20.1141 40.8511C20.1734 40.9236 20.2811 40.9587 20.4393 40.9587H22.2215C22.283 40.9587 22.3204 40.9697 22.3314 40.9917C22.3424 41.0137 22.3424 41.0554 22.3314 41.117L22.2611 41.5279ZM24.074 39.1941C23.9444 39.1128 23.8477 39.0008 23.7861 38.8645C23.7224 38.7261 23.6851 38.5656 23.6719 38.3811L23.5884 37.2076C23.584 37.1878 23.5884 37.1592 23.5994 37.1263C23.6125 37.0933 23.6455 37.0779 23.7026 37.0779H24.241C24.263 37.0779 24.2872 37.0823 24.3135 37.0911C24.3399 37.0999 24.3553 37.1263 24.3553 37.1702L24.4454 38.2778C24.4608 38.4162 24.4893 38.5283 24.5333 38.6118C24.5794 38.6953 24.6322 38.759 24.6915 38.8008C24.7509 38.8447 24.8168 38.8733 24.8893 38.8843C24.9618 38.8953 25.0321 38.8997 25.0981 38.8997H25.7002L25.9968 37.1944C25.9968 37.1483 26.0056 37.1175 26.0254 37.1065C26.0452 37.0955 26.0759 37.0911 26.1199 37.0911H26.6847C26.7242 37.0911 26.7528 37.0955 26.7704 37.1065C26.7879 37.1175 26.7923 37.1483 26.7835 37.1944L26.4869 38.8997H27.0846C27.1483 38.8997 27.2209 38.8953 27.2956 38.8843C27.3725 38.8733 27.4472 38.8447 27.5241 38.8008C27.5988 38.759 27.6735 38.6953 27.7461 38.6118C27.8208 38.5283 27.8889 38.4162 27.9526 38.2778L28.4339 37.1702C28.4515 37.1263 28.4734 37.0999 28.5042 37.0911C28.5328 37.0823 28.5591 37.0779 28.5811 37.0779H29.1195C29.1744 37.0779 29.2052 37.0933 29.2052 37.1263C29.2052 37.1592 29.2008 37.1878 29.1876 37.2076L28.6954 38.3811C28.6185 38.5656 28.524 38.7261 28.4119 38.8645C28.2976 39.0008 28.1636 39.1128 28.0098 39.1941L28.0032 39.2271C28.1108 39.2667 28.1966 39.3128 28.2625 39.3611C28.3262 39.4117 28.3789 39.471 28.4141 39.5391C28.4515 39.6073 28.4756 39.682 28.491 39.7611C28.5042 39.8424 28.5174 39.9325 28.5262 40.027L28.6668 41.5499C28.6734 41.5696 28.669 41.5982 28.6558 41.6312C28.6448 41.6641 28.6097 41.6795 28.5525 41.6795H27.9702C27.9482 41.6795 27.9241 41.6751 27.8999 41.6663C27.8757 41.6575 27.8603 41.6312 27.8537 41.5872L27.7175 40.1522C27.7021 40.0336 27.6801 39.9369 27.6494 39.86C27.6208 39.7831 27.5747 39.7259 27.5175 39.6842C27.4582 39.6424 27.3879 39.6117 27.3044 39.5941C27.2187 39.5765 27.1198 39.5699 27.0055 39.5699H26.3704L26.021 41.574C26.0122 41.6224 25.9968 41.6531 25.9749 41.6641C25.9551 41.6751 25.9243 41.6795 25.8848 41.6795H25.3266C25.2826 41.6795 25.2541 41.6751 25.2387 41.6641C25.2233 41.6531 25.2189 41.6224 25.2277 41.574L25.5837 39.5699H24.9486C24.8344 39.5699 24.7311 39.5765 24.641 39.5941C24.5509 39.6117 24.4696 39.6424 24.3971 39.6842C24.3245 39.7259 24.2564 39.7831 24.1949 39.86C24.1334 39.9369 24.0784 40.0336 24.0257 40.1522L23.395 41.5872C23.3752 41.6312 23.351 41.6575 23.3247 41.6663C23.2961 41.6751 23.2719 41.6795 23.2499 41.6795H22.6654C22.6083 41.6795 22.5797 41.6641 22.5797 41.6312C22.5775 41.5982 22.5841 41.5696 22.5973 41.5499L23.2675 40.027C23.3093 39.9369 23.3532 39.849 23.395 39.7699C23.4367 39.6886 23.4895 39.6139 23.5488 39.5457C23.6081 39.4776 23.6807 39.4183 23.7642 39.3655C23.8477 39.3128 23.9488 39.2667 24.0696 39.2271L24.074 39.1941ZM32.4202 41.5279C32.4114 41.5762 32.396 41.6136 32.374 41.64C32.352 41.6663 32.3125 41.6795 32.2554 41.6795H30.3875C30.1567 41.6795 29.9721 41.6466 29.8337 41.5806C29.6975 41.5169 29.5942 41.429 29.5216 41.3191C29.4513 41.2093 29.4118 41.0862 29.4008 40.9456C29.3898 40.8049 29.3986 40.6599 29.425 40.5061L29.8161 38.2646C29.8425 38.1108 29.8886 37.9635 29.9546 37.8207C30.0205 37.6801 30.1106 37.5548 30.2249 37.4449C30.3369 37.335 30.4732 37.2471 30.6336 37.1834C30.794 37.1175 30.9786 37.0845 31.1874 37.0845H33.0179C33.0728 37.0845 33.108 37.0955 33.119 37.1197C33.13 37.1439 33.13 37.1834 33.1212 37.234L33.0509 37.6471C33.0399 37.7042 33.0267 37.7438 33.0069 37.7636C32.9893 37.7833 32.9498 37.7921 32.8948 37.7921H31.15C30.983 37.7921 30.8599 37.8295 30.7808 37.9042C30.6995 37.9767 30.6468 38.0844 30.6226 38.225L30.5017 38.9129H32.4817C32.5388 38.9129 32.574 38.9238 32.585 38.9458C32.596 38.9678 32.596 39.0095 32.585 39.0711L32.5235 39.4315C32.5147 39.4842 32.4993 39.5216 32.4795 39.5457C32.4597 39.5699 32.4224 39.5809 32.3652 39.5809H30.3853L30.2205 40.5346C30.1963 40.6731 30.2139 40.7785 30.2732 40.8511C30.3325 40.9236 30.4402 40.9587 30.5984 40.9587H32.3806C32.4421 40.9587 32.4795 40.9697 32.4905 40.9917C32.5015 41.0137 32.5015 41.0554 32.4905 41.117L32.4202 41.5279ZM33.8529 41.5411C33.842 41.6026 33.8244 41.6422 33.8024 41.6575C33.7804 41.6729 33.7387 41.6795 33.6771 41.6795H33.1783C33.13 41.6795 33.0948 41.6707 33.0728 41.6531C33.0487 41.6356 33.0421 41.5982 33.0531 41.5411L33.6222 38.2646C33.6508 38.1108 33.6947 37.9635 33.7563 37.8207C33.8178 37.6801 33.9035 37.5548 34.0156 37.4449C34.1254 37.335 34.2617 37.2471 34.4221 37.1834C34.5803 37.1175 34.7737 37.0845 34.9957 37.0845H36.7976C36.8591 37.0845 36.8965 37.0955 36.9075 37.1197C36.9185 37.1439 36.9185 37.1834 36.9097 37.234L36.8394 37.6405C36.8284 37.6976 36.813 37.7372 36.7932 37.7592C36.7712 37.7811 36.7317 37.7921 36.6745 37.7921H34.9583C34.7913 37.7921 34.6682 37.8273 34.5891 37.8998C34.5078 37.9723 34.4551 38.0778 34.4309 38.2184L33.8529 41.5411ZM40.4521 39.3655C40.318 40.1259 40.0499 40.7148 39.6434 41.1301C39.2368 41.5455 38.6941 41.752 38.0172 41.752C37.3558 41.752 36.8965 41.5521 36.6394 41.1521C36.3801 40.7522 36.3186 40.1654 36.4548 39.3919C36.5207 39.0161 36.6262 38.6821 36.7756 38.3876C36.9251 38.0954 37.1075 37.8471 37.3184 37.6449C37.5316 37.4405 37.7689 37.2867 38.0304 37.179C38.2897 37.0713 38.5688 37.0186 38.8611 37.0186C39.1885 37.0186 39.4698 37.0713 39.7005 37.179C39.9335 37.2867 40.1159 37.4405 40.2477 37.6449C40.3774 37.8471 40.4609 38.0954 40.4938 38.3855C40.529 38.6755 40.5158 39.003 40.4521 39.3655ZM39.6214 39.3919C39.6588 39.1722 39.6785 38.9656 39.6807 38.7656C39.6829 38.5678 39.6544 38.3898 39.595 38.2382C39.5379 38.0844 39.4412 37.9635 39.305 37.8734C39.1687 37.7833 38.9841 37.7394 38.749 37.7394C38.5468 37.7394 38.3644 37.7833 38.2018 37.8668C38.037 37.9525 37.8942 38.069 37.7689 38.2184C37.6459 38.3657 37.5426 38.5393 37.4613 38.7327C37.3778 38.9282 37.3184 39.137 37.2789 39.3589C37.2349 39.6117 37.2129 39.8424 37.2151 40.0468C37.2173 40.2533 37.2503 40.4291 37.3162 40.5742C37.3821 40.7214 37.4854 40.8335 37.6217 40.9126C37.7579 40.9917 37.9381 41.0313 38.1623 41.0313C38.3842 41.0313 38.5798 40.9851 38.7468 40.8928C38.9138 40.8005 39.0545 40.6797 39.1731 40.5302C39.2918 40.3786 39.3863 40.205 39.4566 40.0072C39.5291 39.8116 39.5841 39.6051 39.6214 39.3919ZM41.0498 41.6795L40.8037 42.6442C40.7905 42.6926 40.7751 42.7233 40.7531 42.7387C40.7334 42.7541 40.707 42.7607 40.6718 42.7607H40.2389C40.2081 42.7607 40.1862 42.7541 40.1708 42.7387C40.1554 42.7233 40.151 42.6926 40.1554 42.6442L40.2961 41.2994C40.3092 41.2246 40.3356 41.1565 40.3752 41.0928C40.4147 41.0291 40.485 40.9939 40.5883 40.9851L40.8279 40.9653C40.9201 40.8774 41.0015 40.7873 41.0674 40.6928C41.1355 40.5983 41.1926 40.4973 41.2454 40.3874C41.2981 40.2797 41.3465 40.1566 41.3904 40.0248C41.4366 39.8907 41.4827 39.7413 41.5354 39.5743L42.1661 37.4911C42.2123 37.3548 42.2782 37.2537 42.3639 37.19C42.4496 37.1241 42.5683 37.0911 42.7221 37.0911H44.7482C44.9086 37.0911 45.0141 37.1263 45.0668 37.1988C45.1174 37.2713 45.1284 37.3812 45.1042 37.5306L44.5021 40.9785L44.7702 40.9917C44.8735 41.0005 44.9328 41.0291 44.9482 41.0796C44.9636 41.1301 44.9636 41.1829 44.9482 41.24L44.6186 42.6442C44.6054 42.6926 44.59 42.7233 44.5724 42.7387C44.5548 42.7541 44.5285 42.7607 44.4933 42.7607H44.0538C44.0186 42.7607 43.9967 42.7541 43.9857 42.7387C43.9747 42.7233 43.9725 42.6926 43.9769 42.6442L44.1043 41.6795H41.0498ZM44.2648 37.7921H42.8364L42.4518 39.0909C42.3529 39.4315 42.2694 39.7062 42.2035 39.9171C42.1354 40.1259 42.076 40.2973 42.0211 40.4269C41.9684 40.5588 41.92 40.6621 41.8739 40.739C41.8277 40.8159 41.7728 40.8928 41.7112 40.9719H43.711L44.2648 37.7921ZM49.1103 41.5411C49.0993 41.6026 49.0839 41.6422 49.0619 41.6575C49.0378 41.6729 48.996 41.6795 48.9345 41.6795H48.4378C48.3851 41.6795 48.3477 41.6707 48.328 41.6531C48.306 41.6356 48.3016 41.5982 48.3104 41.5411L48.6466 39.6139H46.6073L46.2711 41.5411C46.2601 41.6026 46.2425 41.6422 46.2183 41.6575C46.1942 41.6729 46.1502 41.6795 46.0909 41.6795H45.5921C45.5437 41.6795 45.5085 41.6707 45.4844 41.6531C45.4624 41.6356 45.4558 41.5982 45.4646 41.5411L46.2161 37.2274C46.2271 37.1724 46.2469 37.1351 46.2755 37.1175C46.3041 37.0999 46.3436 37.0911 46.3919 37.0911H46.8908C46.9501 37.0911 46.9919 37.0977 47.0095 37.1131C47.0292 37.1285 47.0336 37.168 47.0226 37.2274L46.7282 38.926H48.7675L49.0619 37.2274C49.0729 37.1724 49.0905 37.1351 49.1169 37.1175C49.1454 37.0999 49.185 37.0911 49.2377 37.0911H49.7344C49.7959 37.0911 49.8354 37.0977 49.853 37.1131C49.8684 37.1285 49.8728 37.168 49.8618 37.2274L49.1103 41.5411ZM52.5648 40.6775H50.899L50.4551 41.5674C50.4354 41.607 50.4112 41.6356 50.3848 41.6531C50.3585 41.6707 50.3167 41.6795 50.2662 41.6795H49.6618C49.6135 41.6795 49.5849 41.6663 49.5783 41.6378C49.5695 41.6092 49.5739 41.5762 49.5937 41.5411L51.7341 37.3922C51.7671 37.3263 51.7978 37.2735 51.8264 37.234C51.855 37.1944 51.8879 37.1658 51.9253 37.1439C51.9604 37.1219 52.0022 37.1043 52.0483 37.0933C52.0923 37.0823 52.1472 37.0779 52.2088 37.0779H52.49C52.6263 37.0779 52.7186 37.0977 52.7669 37.1395C52.8175 37.1812 52.8526 37.2647 52.8746 37.3922L53.5734 41.5411C53.58 41.5762 53.5756 41.6092 53.5602 41.6378C53.5448 41.6663 53.5119 41.6795 53.4635 41.6795H52.8614C52.8131 41.6795 52.7757 41.6751 52.7494 41.6641C52.723 41.6531 52.7054 41.6224 52.6966 41.574L52.5648 40.6775ZM51.2155 39.994H52.4725L52.323 38.8931L52.211 37.9635H52.178L51.7517 38.8733L51.2155 39.994ZM56.8521 39.7721H56.083C55.8742 39.7721 55.694 39.8138 55.5402 39.8973C55.3886 39.9786 55.2611 40.1369 55.16 40.3676L54.6282 41.574C54.6062 41.6268 54.5777 41.6575 54.5403 41.6663C54.5052 41.6751 54.4678 41.6795 54.4326 41.6795H53.8569C53.7998 41.6795 53.7712 41.6663 53.769 41.6378C53.7668 41.6092 53.7734 41.5762 53.7888 41.5411L54.3623 40.2445C54.4348 40.0819 54.5227 39.9457 54.6282 39.8314C54.7337 39.7171 54.8831 39.6292 55.0765 39.5699L55.0787 39.5611C54.8458 39.4622 54.6876 39.3128 54.6019 39.1128C54.5162 38.9151 54.4964 38.6843 54.5425 38.4206C54.5755 38.225 54.6414 38.0448 54.7381 37.88C54.8348 37.7174 54.9557 37.5746 55.1029 37.4581C55.2501 37.3394 55.4193 37.2471 55.6083 37.1834C55.7951 37.1175 56.0017 37.0845 56.2236 37.0845H57.7641C57.9047 37.0845 57.9948 37.1153 58.0366 37.1768C58.0783 37.2362 58.0893 37.3306 58.0673 37.4581L57.3487 41.574C57.3422 41.6224 57.3268 41.6531 57.3048 41.6641C57.2828 41.6751 57.2499 41.6795 57.2059 41.6795H56.6499C56.6016 41.6795 56.5686 41.6751 56.551 41.6641C56.5335 41.6531 56.5291 41.6224 56.5379 41.574L56.8521 39.7721ZM55.349 38.4536C55.3182 38.6382 55.349 38.792 55.4457 38.9172C55.5424 39.0403 55.7248 39.104 55.9907 39.104H56.9598L57.1861 37.8053H56.1775C56.028 37.8053 55.905 37.8273 55.8061 37.8712C55.705 37.9152 55.6237 37.9679 55.56 38.0317C55.4962 38.0954 55.4501 38.1635 55.4171 38.2404C55.3842 38.3173 55.3622 38.3877 55.349 38.4536ZM63.7127 41.5411C63.7039 41.6026 63.6864 41.6422 63.6644 41.6575C63.6424 41.6729 63.6007 41.6795 63.5391 41.6795H63.0403C62.9876 41.6795 62.9524 41.6707 62.9304 41.6531C62.9084 41.6356 62.9041 41.5982 62.915 41.5411L63.2491 39.6139H61.2098L60.8758 41.5411C60.8648 41.6026 60.8472 41.6422 60.823 41.6575C60.7966 41.6729 60.7549 41.6795 60.6934 41.6795H60.1945C60.1462 41.6795 60.111 41.6707 60.089 41.6531C60.0649 41.6356 60.0583 41.5982 60.0693 41.5411L60.8208 37.2274C60.8296 37.1724 60.8494 37.1351 60.8779 37.1175C60.9087 37.0999 60.9461 37.0911 60.9944 37.0911H61.4933C61.5548 37.0911 61.5943 37.0977 61.6141 37.1131C61.6317 37.1285 61.6361 37.168 61.6273 37.2274L61.3306 38.926H63.3699L63.6666 37.2274C63.6754 37.1724 63.693 37.1351 63.7215 37.1175C63.7479 37.0999 63.7875 37.0911 63.8402 37.0911H64.339C64.4006 37.0911 64.4379 37.0977 64.4555 37.1131C64.4731 37.1285 64.4753 37.168 64.4643 37.2274L63.7127 41.5411ZM67.1672 40.6775H65.5015L65.0576 41.5674C65.0378 41.607 65.0159 41.6356 64.9873 41.6531C64.9609 41.6707 64.9214 41.6795 64.8686 41.6795H64.2643C64.2182 41.6795 64.1896 41.6663 64.1808 41.6378C64.172 41.6092 64.1786 41.5762 64.1984 41.5411L66.3366 37.3922C66.3695 37.3263 66.4003 37.2735 66.4289 37.234C66.4596 37.1944 66.4904 37.1658 66.5278 37.1439C66.5651 37.1219 66.6047 37.1043 66.6508 37.0933C66.697 37.0823 66.7497 37.0779 66.8112 37.0779H67.0925C67.2288 37.0779 67.3211 37.0977 67.3716 37.1395C67.4199 37.1812 67.4551 37.2647 67.4771 37.3922L68.1781 41.5411C68.1847 41.5762 68.1803 41.6092 68.1649 41.6378C68.1473 41.6663 68.1166 41.6795 68.0682 41.6795H67.4639C67.4155 41.6795 67.3804 41.6751 67.3518 41.6641C67.3255 41.6531 67.3079 41.6224 67.2991 41.574L67.1672 40.6775ZM65.818 39.994H67.0771L66.9277 38.8931L66.8134 37.9635H66.7805L66.3541 38.8733L65.818 39.994ZM72.4017 40.9587L72.6522 40.9851C72.7116 40.9939 72.7577 41.0071 72.7863 41.0247C72.817 41.0422 72.8368 41.0642 72.8478 41.0906C72.8588 41.117 72.861 41.1433 72.8566 41.1719C72.85 41.2005 72.8456 41.229 72.8412 41.2598L72.5204 42.6508C72.5072 42.6992 72.4896 42.7299 72.4698 42.7453C72.45 42.7607 72.4259 42.7673 72.3951 42.7673H71.9622C71.8963 42.7673 71.8677 42.7299 71.8765 42.6508L71.9996 41.6795H69.0571C68.9252 41.6795 68.8285 41.6444 68.767 41.5718C68.7055 41.4993 68.6879 41.3873 68.7143 41.2334L69.4175 37.1944C69.4263 37.1483 69.4417 37.1175 69.4636 37.1043C69.4856 37.0911 69.5186 37.0845 69.5625 37.0845H70.1119C70.1602 37.0845 70.1932 37.0911 70.2108 37.1043C70.2284 37.1175 70.2328 37.1483 70.224 37.1944L69.5647 40.9785H71.5974L72.2567 37.1944C72.2655 37.1483 72.2808 37.1175 72.3028 37.1043C72.3248 37.0911 72.3578 37.0845 72.4017 37.0845H72.9445C72.9928 37.0845 73.0258 37.0911 73.0434 37.1043C73.061 37.1175 73.0654 37.1483 73.0566 37.1944L72.4017 40.9587ZM76.8275 38.2382L76.0759 39.2337L74.408 41.3982C74.3245 41.5081 74.252 41.5806 74.1927 41.6202C74.1333 41.6597 74.0454 41.6795 73.9268 41.6795H73.696C73.5488 41.6795 73.4543 41.6466 73.4126 41.5784C73.373 41.5103 73.3642 41.4136 73.3862 41.2862L74.0982 37.1944C74.107 37.1483 74.1224 37.1175 74.1443 37.1043C74.1663 37.0911 74.1993 37.0845 74.241 37.0845H74.786C74.8343 37.0845 74.8651 37.0911 74.8805 37.1043C74.8959 37.1175 74.9003 37.1483 74.8915 37.1944L74.3135 40.5126H74.3399L75.0431 39.5941L76.755 37.3724C76.8407 37.2581 76.9132 37.1834 76.9725 37.1439C77.0319 37.1043 77.1176 37.0845 77.2318 37.0845H77.467C77.612 37.0845 77.7065 37.1153 77.7504 37.179C77.7922 37.2427 77.8032 37.3438 77.779 37.4845L77.067 41.5674C77.0582 41.6158 77.0428 41.6466 77.0209 41.6597C76.9989 41.6729 76.9659 41.6795 76.922 41.6795H76.3792C76.3309 41.6795 76.2979 41.6729 76.2847 41.6597C76.2671 41.6466 76.2649 41.6158 76.2737 41.5674L76.8539 38.2382H76.8275ZM82.1828 39.3655C82.051 40.1259 81.7807 40.7148 81.3741 41.1301C80.9676 41.5455 80.4248 41.752 79.748 41.752C79.0865 41.752 78.6273 41.5521 78.3701 41.1521C78.113 40.7522 78.0515 40.1654 78.1856 39.3919C78.2515 39.0161 78.357 38.6821 78.5086 38.3876C78.658 38.0954 78.8382 37.8471 79.0492 37.6449C79.2623 37.4405 79.4997 37.2867 79.7612 37.179C80.0227 37.0713 80.2996 37.0186 80.5918 37.0186C80.9193 37.0186 81.2005 37.0713 81.4335 37.179C81.6642 37.2867 81.8466 37.4405 81.9785 37.6449C82.1081 37.8471 82.1916 38.0954 82.2246 38.3855C82.2597 38.6755 82.2466 39.003 82.1828 39.3655ZM81.3522 39.3919C81.3895 39.1722 81.4093 38.9656 81.4115 38.7656C81.4137 38.5678 81.3851 38.3898 81.3258 38.2382C81.2687 38.0844 81.172 37.9635 81.0357 37.8734C80.9017 37.7833 80.7149 37.7394 80.4798 37.7394C80.2776 37.7394 80.0952 37.7833 79.9326 37.8668C79.77 37.9525 79.6249 38.069 79.5019 38.2184C79.3766 38.3657 79.2733 38.5393 79.192 38.7327C79.1107 38.9282 79.0492 39.137 79.0096 39.3589C78.9657 39.6117 78.9459 39.8424 78.9459 40.0468C78.9481 40.2533 78.9811 40.4291 79.047 40.5742C79.1129 40.7214 79.2162 40.8335 79.3524 40.9126C79.4887 40.9917 79.6711 41.0313 79.893 41.0313C80.115 41.0313 80.3106 40.9851 80.4776 40.8928C80.6446 40.8005 80.7874 40.6797 80.9039 40.5302C81.0225 40.3786 81.117 40.205 81.1896 40.0072C81.2599 39.8116 81.3148 39.6051 81.3522 39.3919ZM86.1889 41.5411C86.1779 41.6026 86.1603 41.6422 86.1384 41.6575C86.1164 41.6729 86.0746 41.6795 86.0131 41.6795H85.5143C85.4615 41.6795 85.4264 41.6707 85.4044 41.6531C85.3846 41.6356 85.378 41.5982 85.389 41.5411L85.723 39.6139H83.6859L83.3497 41.5411C83.3387 41.6026 83.3211 41.6422 83.297 41.6575C83.2728 41.6729 83.2288 41.6795 83.1673 41.6795H82.6685C82.6223 41.6795 82.585 41.6707 82.563 41.6531C82.5388 41.6356 82.5322 41.5982 82.5432 41.5411L83.2948 37.2274C83.3036 37.1724 83.3233 37.1351 83.3541 37.1175C83.3827 37.0999 83.42 37.0911 83.4684 37.0911H83.9672C84.0287 37.0911 84.0683 37.0977 84.0881 37.1131C84.1079 37.1285 84.1122 37.168 84.1012 37.2274L83.8046 38.926H85.8439L86.1405 37.2274C86.1493 37.1724 86.1669 37.1351 86.1955 37.1175C86.2219 37.0999 86.2614 37.0911 86.3141 37.0911H86.813C86.8745 37.0911 86.9141 37.0977 86.9295 37.1131C86.947 37.1285 86.9492 37.168 86.9404 37.2274L86.1889 41.5411ZM89.6412 40.6775H87.9755L87.5338 41.5674C87.5118 41.607 87.4898 41.6356 87.4613 41.6531C87.4349 41.6707 87.3953 41.6795 87.3426 41.6795H86.7405C86.6921 41.6795 86.6636 41.6663 86.6548 41.6378C86.646 41.6092 86.6526 41.5762 86.6723 41.5411L88.8105 37.3922C88.8435 37.3263 88.8743 37.2735 88.905 37.234C88.9336 37.1944 88.9644 37.1658 89.0017 37.1439C89.0391 37.1219 89.0786 37.1043 89.1248 37.0933C89.1709 37.0823 89.2237 37.0779 89.2852 37.0779H89.5665C89.7027 37.0779 89.795 37.0977 89.8456 37.1395C89.8939 37.1812 89.9313 37.2647 89.951 37.3922L90.652 41.5411C90.6586 41.5762 90.6542 41.6092 90.6389 41.6378C90.6213 41.6663 90.5905 41.6795 90.5422 41.6795H89.9379C89.8917 41.6795 89.8543 41.6751 89.828 41.6641C89.8016 41.6531 89.7818 41.6224 89.773 41.574L89.6412 40.6775ZM88.2919 39.994H89.5511L89.4017 38.8931L89.2874 37.9635H89.2566L88.8281 38.8733L88.2919 39.994ZM92.4364 37.5306C92.4738 37.3724 92.5309 37.2603 92.61 37.1922C92.6913 37.1241 92.799 37.0911 92.9331 37.0911H95.0844C95.3635 37.0911 95.4778 37.2362 95.4272 37.5306L94.724 41.5674C94.7152 41.6158 94.6999 41.6466 94.6823 41.6597C94.6625 41.6729 94.6273 41.6795 94.579 41.6795H94.023C93.9791 41.6795 93.9483 41.6729 93.9307 41.6597C93.9132 41.6466 93.9088 41.6158 93.9175 41.5674L94.5746 37.7921H93.1264L92.988 38.3635C92.8671 38.8513 92.7551 39.2886 92.6518 39.6732C92.5485 40.0578 92.4254 40.3918 92.2848 40.6775C92.1442 40.9609 91.9706 41.1939 91.7662 41.3785C91.5596 41.5609 91.2959 41.6993 90.9729 41.7916C90.9289 41.8004 90.8938 41.7982 90.8652 41.7872C90.8388 41.7762 90.8213 41.7476 90.8125 41.6993L90.7421 41.3125C90.74 41.273 90.7443 41.24 90.7553 41.2136C90.7685 41.1873 90.7993 41.1631 90.852 41.1433C91.0476 41.0642 91.208 40.9631 91.3333 40.8401C91.4563 40.7192 91.5662 40.5544 91.6585 40.35C91.7508 40.1435 91.8387 39.8864 91.92 39.5787C92.0013 39.271 92.1002 38.8887 92.2145 38.4338L92.4364 37.5306ZM95.9481 41.6795C95.8074 41.6795 95.7173 41.651 95.6756 41.5916C95.6338 41.5323 95.6228 41.4378 95.647 41.3059L96.3634 37.1944C96.37 37.1483 96.3854 37.1175 96.4073 37.1043C96.4293 37.0911 96.4623 37.0845 96.5062 37.0845H97.0644C97.1127 37.0845 97.1435 37.0911 97.1589 37.1043C97.1743 37.1175 97.1765 37.1483 97.1699 37.1944L96.8908 38.7942H97.9654C98.2137 38.7942 98.4224 38.8206 98.5873 38.8711C98.7543 38.9216 98.8905 38.9876 98.996 39.0711C99.1015 39.1546 99.1806 39.2469 99.2355 39.3502C99.2905 39.4512 99.3256 39.5589 99.3454 39.6666C99.363 39.7765 99.3674 39.882 99.3608 39.9808C99.3542 40.0819 99.3454 40.172 99.3322 40.2511C99.2949 40.4555 99.2223 40.6467 99.1103 40.8203C98.9982 40.9961 98.8619 41.1477 98.7015 41.273C98.5389 41.4004 98.3587 41.4993 98.1609 41.5718C97.961 41.6444 97.7566 41.6795 97.5412 41.6795H95.9481ZM98.5126 40.2116C98.5477 40.0006 98.5126 39.8248 98.4049 39.6842C98.295 39.5413 98.1126 39.471 97.8533 39.471H96.7721L96.5128 40.9587H97.5808C97.739 40.9587 97.8731 40.9346 97.9851 40.884C98.0972 40.8335 98.1895 40.7698 98.2642 40.6972C98.3367 40.6225 98.3939 40.5412 98.4334 40.4533C98.473 40.3654 98.4994 40.2863 98.5126 40.2116ZM103.367 41.5411C103.356 41.6026 103.338 41.6422 103.316 41.6575C103.294 41.6729 103.253 41.6795 103.191 41.6795H102.692C102.642 41.6795 102.604 41.6707 102.582 41.6531C102.563 41.6356 102.556 41.5982 102.567 41.5411L102.903 39.6139H100.864L100.528 41.5411C100.517 41.6026 100.499 41.6422 100.475 41.6575C100.451 41.6729 100.407 41.6795 100.345 41.6795H99.8486C99.8003 41.6795 99.7651 41.6707 99.741 41.6531C99.7168 41.6356 99.7102 41.5982 99.7212 41.5411L100.473 37.2274C100.482 37.1724 100.501 37.1351 100.532 37.1175C100.561 37.0999 100.6 37.0911 100.646 37.0911H101.145C101.207 37.0911 101.246 37.0977 101.266 37.1131C101.286 37.1285 101.29 37.168 101.279 37.2274L100.983 38.926H103.022L103.319 37.2274C103.327 37.1724 103.347 37.1351 103.373 37.1175C103.4 37.0999 103.439 37.0911 103.492 37.0911H103.991C104.052 37.0911 104.092 37.0977 104.107 37.1131C104.125 37.1285 104.129 37.168 104.118 37.2274L103.367 41.5411ZM106.819 40.6775H105.156L104.712 41.5674C104.692 41.607 104.668 41.6356 104.641 41.6531C104.613 41.6707 104.573 41.6795 104.521 41.6795H103.918C103.87 41.6795 103.842 41.6663 103.833 41.6378C103.826 41.6092 103.831 41.5762 103.85 41.5411L105.988 37.3922C106.024 37.3263 106.054 37.2735 106.083 37.234C106.112 37.1944 106.145 37.1658 106.18 37.1439C106.217 37.1219 106.259 37.1043 106.303 37.0933C106.349 37.0823 106.402 37.0779 106.463 37.0779H106.747C106.881 37.0779 106.973 37.0977 107.024 37.1395C107.072 37.1812 107.109 37.2647 107.131 37.3922L107.83 41.5411C107.837 41.5762 107.832 41.6092 107.817 41.6378C107.801 41.6663 107.768 41.6795 107.72 41.6795H107.118C107.07 41.6795 107.032 41.6751 107.006 41.6641C106.98 41.6531 106.962 41.6224 106.953 41.574L106.819 40.6775ZM105.47 39.994H106.729L106.58 38.8931L106.468 37.9635H106.435L106.006 38.8733L105.47 39.994ZM111.106 39.7721H110.34C110.131 39.7721 109.948 39.8138 109.797 39.8973C109.645 39.9786 109.518 40.1369 109.417 40.3676L108.885 41.574C108.863 41.6268 108.832 41.6575 108.797 41.6663C108.76 41.6751 108.724 41.6795 108.689 41.6795H108.113C108.056 41.6795 108.028 41.6663 108.026 41.6378C108.023 41.6092 108.03 41.5762 108.045 41.5411L108.619 40.2445C108.691 40.0819 108.779 39.9457 108.883 39.8314C108.988 39.7171 109.138 39.6292 109.333 39.5699V39.5611C109.102 39.4622 108.944 39.3128 108.858 39.1128C108.773 38.9151 108.753 38.6843 108.799 38.4206C108.832 38.225 108.898 38.0448 108.995 37.88C109.091 37.7174 109.212 37.5746 109.359 37.4581C109.507 37.3394 109.674 37.2471 109.863 37.1834C110.052 37.1175 110.258 37.0845 110.48 37.0845H112.021C112.161 37.0845 112.251 37.1153 112.293 37.1768C112.335 37.2362 112.346 37.3306 112.324 37.4581L111.605 41.574C111.597 41.6224 111.583 41.6531 111.561 41.6641C111.539 41.6751 111.506 41.6795 111.462 41.6795H110.907C110.858 41.6795 110.825 41.6751 110.808 41.6641C110.79 41.6531 110.783 41.6224 110.792 41.574L111.106 39.7721ZM109.606 38.4536C109.575 38.6382 109.606 38.792 109.702 38.9172C109.799 39.0403 109.979 39.104 110.247 39.104H111.216L111.443 37.8053H110.434C110.285 37.8053 110.162 37.8273 110.06 37.8712C109.962 37.9152 109.88 37.9679 109.817 38.0317C109.753 38.0954 109.704 38.1635 109.672 38.2404C109.639 38.3173 109.617 38.3877 109.606 38.4536ZM117.958 41.5674C117.95 41.6158 117.934 41.6466 117.912 41.6597C117.89 41.6729 117.855 41.6795 117.807 41.6795H117.264C117.22 41.6795 117.189 41.6729 117.172 41.6597C117.154 41.6466 117.15 41.6158 117.158 41.5674L117.815 37.7921H115.785L115.126 41.5674C115.117 41.6158 115.104 41.6466 115.082 41.6597C115.06 41.6729 115.025 41.6795 114.976 41.6795H114.425C114.381 41.6795 114.35 41.6729 114.332 41.6597C114.315 41.6466 114.31 41.6158 114.319 41.5674L115.022 37.5306C115.051 37.3768 115.106 37.2647 115.194 37.1922C115.28 37.1197 115.389 37.0845 115.521 37.0845H118.321C118.6 37.0845 118.714 37.2318 118.662 37.5306L117.958 41.5674ZM119.626 41.5411C119.615 41.6026 119.6 41.6422 119.578 41.6575C119.556 41.6729 119.514 41.6795 119.453 41.6795H118.96C118.912 41.6795 118.877 41.6707 118.853 41.6531C118.831 41.6356 118.824 41.5982 118.833 41.5411L119.547 37.4515C119.567 37.3284 119.611 37.2362 119.675 37.1724C119.736 37.1087 119.839 37.0779 119.978 37.0779H121.538C121.758 37.0779 121.951 37.1109 122.12 37.179C122.292 37.2471 122.428 37.3438 122.536 37.4669C122.643 37.5922 122.718 37.7416 122.76 37.913C122.802 38.0866 122.806 38.2756 122.769 38.4799C122.749 38.5986 122.705 38.7393 122.641 38.9041C122.575 39.0667 122.472 39.2249 122.334 39.3787C122.197 39.5326 122.017 39.6622 121.797 39.7699C121.578 39.8754 121.305 39.9303 120.978 39.9303H119.908L119.626 41.5411ZM121.934 38.5327C121.947 38.458 121.949 38.3789 121.94 38.291C121.931 38.2031 121.905 38.1239 121.857 38.0514C121.811 37.9789 121.74 37.9196 121.644 37.8712C121.547 37.8229 121.417 37.7987 121.257 37.7987H120.285L120.033 39.2535H121.015C121.29 39.2535 121.503 39.1853 121.655 39.0513C121.804 38.9151 121.898 38.7436 121.934 38.5327Z" fill="#2D3941"/>
<path d="M126.053 41.5235C126.044 41.5718 126.029 41.6092 126.007 41.6356C125.985 41.6619 125.946 41.6751 125.888 41.6751H124.02C123.788 41.6751 123.603 41.6422 123.467 41.5762C123.33 41.5125 123.225 41.4246 123.155 41.3147C123.084 41.2049 123.045 41.0818 123.034 40.9412C123.023 40.8005 123.032 40.6555 123.058 40.5017L123.449 38.2602C123.476 38.1064 123.522 37.9591 123.588 37.8163C123.653 37.6757 123.744 37.5504 123.856 37.4405C123.97 37.3306 124.106 37.2428 124.267 37.179C124.427 37.1131 124.612 37.0801 124.82 37.0801H126.649C126.706 37.0801 126.741 37.0911 126.752 37.1153C126.763 37.1395 126.763 37.179 126.754 37.2296L126.682 37.6427C126.673 37.6998 126.66 37.7394 126.64 37.7592C126.62 37.7789 126.583 37.7877 126.526 37.7877H124.783C124.616 37.7877 124.493 37.8251 124.412 37.8998C124.333 37.9723 124.28 38.08 124.256 38.2206L124.135 38.9085H126.115C126.172 38.9085 126.205 38.9195 126.218 38.9414C126.229 38.9634 126.229 39.0052 126.218 39.0667L126.156 39.4271C126.145 39.4798 126.132 39.5172 126.113 39.5414C126.093 39.5655 126.055 39.5765 125.998 39.5765H124.018L123.851 40.5302C123.829 40.6687 123.847 40.7742 123.906 40.8467C123.966 40.9192 124.073 40.9544 124.231 40.9544H126.014C126.075 40.9544 126.113 40.9653 126.124 40.9873C126.134 41.0093 126.134 41.051 126.124 41.1126L126.053 41.5235ZM130.962 38.5085H130.923L130.42 39.4007L129.585 40.8489C129.516 40.9631 129.457 41.0401 129.404 41.0796C129.352 41.1192 129.27 41.1389 129.16 41.1389H128.866C128.756 41.1389 128.681 41.1192 128.644 41.0796C128.604 41.0401 128.572 40.9631 128.55 40.8489L128.213 39.4666L128.011 38.5876H127.972L127.457 41.5367C127.449 41.5982 127.431 41.6378 127.405 41.6532C127.38 41.6685 127.341 41.6751 127.284 41.6751H126.811C126.763 41.6751 126.728 41.6685 126.704 41.6532C126.679 41.6378 126.675 41.5982 126.684 41.5367L127.391 37.4801C127.416 37.3438 127.46 37.2428 127.523 37.179C127.587 37.1131 127.693 37.0801 127.842 37.0801H128.11C128.224 37.0801 128.306 37.0999 128.356 37.1395C128.407 37.179 128.444 37.2559 128.473 37.3746L128.917 39.2952L129.147 40.3127H129.174L129.758 39.2886L130.866 37.3746C130.934 37.2559 131.002 37.179 131.07 37.1395C131.138 37.0999 131.228 37.0801 131.343 37.0801H131.591C131.732 37.0801 131.824 37.1109 131.87 37.1724C131.916 37.2318 131.929 37.3307 131.905 37.4669L131.195 41.5367C131.184 41.5982 131.167 41.6378 131.143 41.6532C131.118 41.6685 131.077 41.6751 131.02 41.6751H130.556C130.508 41.6751 130.472 41.6685 130.45 41.6532C130.431 41.6378 130.424 41.5982 130.435 41.5367L130.962 38.5085ZM135.553 38.2338L134.801 39.2293L133.134 41.3939C133.048 41.5037 132.978 41.5762 132.918 41.6158C132.859 41.6554 132.769 41.6751 132.652 41.6751H132.422C132.274 41.6751 132.18 41.6422 132.138 41.574C132.099 41.5059 132.088 41.4092 132.11 41.2818L132.824 37.19C132.833 37.1439 132.846 37.1131 132.87 37.0999C132.89 37.0867 132.923 37.0801 132.967 37.0801H133.512C133.56 37.0801 133.591 37.0867 133.606 37.0999C133.621 37.1131 133.626 37.1439 133.617 37.19L133.039 40.5083H133.065L133.769 39.5897L135.481 37.368C135.566 37.2537 135.639 37.179 135.698 37.1395C135.757 37.0999 135.843 37.0801 135.957 37.0801H136.193C136.338 37.0801 136.432 37.1109 136.474 37.1746C136.518 37.2384 136.529 37.3394 136.505 37.4801L135.793 41.5631C135.784 41.6114 135.768 41.6422 135.746 41.6554C135.724 41.6685 135.691 41.6751 135.648 41.6751H135.103C135.056 41.6751 135.023 41.6685 135.008 41.6554C134.993 41.6422 134.99 41.6114 134.999 41.5631L135.579 38.2338H135.553ZM139.46 39.7677H138.693C138.482 39.7677 138.302 39.8094 138.15 39.893C137.999 39.9743 137.871 40.1325 137.77 40.3632L137.239 41.5697C137.217 41.6224 137.186 41.6532 137.151 41.662C137.113 41.6707 137.078 41.6751 137.043 41.6751H136.465C136.41 41.6751 136.379 41.6619 136.377 41.6334C136.377 41.6048 136.384 41.5718 136.399 41.5367L136.973 40.2402C137.043 40.0775 137.133 39.9413 137.236 39.827C137.342 39.7128 137.491 39.6249 137.687 39.5655V39.5567C137.456 39.4578 137.298 39.3084 137.212 39.1084C137.126 38.9107 137.107 38.6799 137.151 38.4162C137.186 38.2206 137.252 38.0404 137.348 37.8756C137.443 37.713 137.566 37.5702 137.713 37.4537C137.86 37.335 138.027 37.2428 138.216 37.179C138.405 37.1131 138.61 37.0801 138.834 37.0801H140.374C140.515 37.0801 140.605 37.1109 140.647 37.1724C140.689 37.2318 140.697 37.3263 140.675 37.4537L139.959 41.5697C139.95 41.618 139.935 41.6488 139.915 41.6598C139.893 41.6707 139.86 41.6751 139.816 41.6751H139.258C139.21 41.6751 139.179 41.6707 139.159 41.6598C139.142 41.6488 139.137 41.618 139.146 41.5697L139.46 39.7677ZM137.959 38.4492C137.926 38.6338 137.959 38.7876 138.056 38.9129C138.153 39.0359 138.333 39.0996 138.599 39.0996H139.57L139.796 37.8009H138.786C138.638 37.8009 138.513 37.8229 138.414 37.8668C138.315 37.9108 138.234 37.9635 138.17 38.0273C138.107 38.091 138.058 38.1591 138.025 38.236C137.992 38.3129 137.97 38.3833 137.959 38.4492Z" fill="#2D3941"/>
</svg>
