<svg width="160" height="43" viewBox="0 0 160 43" fill="none" xmlns="http://www.w3.org/2000/svg">
<path d="M3.11168 31.782H0L6.17721 20.6143H9.36799L11.6468 31.782H8.53514L8.16595 29.7889H4.17747L3.11168 31.782ZM5.25645 27.7144H7.80996L7.18806 23.9655L5.25645 27.7144ZM13.919 20.6143H20.3006C21.3444 20.6143 22.0674 20.8516 22.474 21.3241C22.8827 21.7987 23.0014 22.5195 22.8321 23.4864C22.7201 24.1237 22.4915 24.6423 22.1443 25.0423C21.7993 25.4422 21.4104 25.7191 20.9774 25.8795C21.7993 26.1146 22.2828 26.6882 22.4322 27.6024C22.4805 27.932 22.4674 28.3144 22.3904 28.7517C22.2103 29.7933 21.8301 30.5602 21.2565 31.0481C20.6808 31.5381 19.8721 31.782 18.8305 31.782H11.9698L13.919 20.6143ZM19.6018 28.2726C19.7139 27.6353 19.4502 27.3167 18.8129 27.3167H15.6221L15.231 29.5494H18.4217C19.0612 29.5494 19.4348 29.2307 19.5469 28.5912L19.6018 28.2726ZM19.9051 23.8051C20.0149 23.1678 19.7512 22.8491 19.114 22.8491H16.4022L16.0111 25.0818H18.7228C19.3623 25.0818 19.7359 24.7632 19.8479 24.1237L19.9051 23.8051ZM27.9282 31.782H25.056L26.6163 22.8491H23.2651L23.6562 20.6143H33.2286L32.8396 22.8491H29.4884L27.9282 31.782ZM40.5199 23.6468C40.632 23.0074 40.3683 22.6887 39.731 22.6887H37.0193C36.3798 22.6887 36.004 23.0074 35.8942 23.6468L35.002 28.7517C34.8899 29.3889 35.1536 29.7098 35.7931 29.7098H38.5048C39.1421 29.7098 39.5179 29.3889 39.6299 28.7517L40.5199 23.6468ZM42.4999 28.7517C42.3065 29.868 41.9109 30.6789 41.3176 31.1843C40.7243 31.6897 39.8695 31.9424 38.7531 31.9424H34.7646C33.6483 31.9424 32.8814 31.6897 32.4638 31.1843C32.0463 30.6789 31.9364 29.868 32.1298 28.7517L33.022 23.6468C33.2176 22.5283 33.6109 21.7174 34.2043 21.212C34.7976 20.7088 35.6524 20.4561 36.771 20.4561H40.7594C41.8758 20.4561 42.6427 20.7088 43.0602 21.212C43.4756 21.7174 43.5876 22.5283 43.3921 23.6468L42.4999 28.7517ZM53.7511 25.5609L50.8219 29.5494H48.587L47.0509 25.5609L45.9654 31.782H43.0932L45.0424 20.6143H48.0728L50.2351 26.519L54.4565 20.6143H57.4869L55.5377 31.782H52.6656L53.7511 25.5609ZM65.5759 23.6468C65.688 23.0074 65.4243 22.6887 64.787 22.6887H62.0753C61.4358 22.6887 61.0601 23.0074 60.9502 23.6468L60.058 28.7517C59.9481 29.3889 60.2096 29.7098 60.8491 29.7098H63.5608C64.1981 29.7098 64.5739 29.3889 64.686 28.7517L65.5759 23.6468ZM67.5559 28.7517C67.3625 29.868 66.9692 30.6789 66.3736 31.1843C65.7803 31.6897 64.9255 31.9424 63.8091 31.9424H59.8207C58.7043 31.9424 57.9374 31.6897 57.5199 31.1843C57.1023 30.6789 56.9925 29.868 57.1858 28.7517L58.078 23.6468C58.2736 22.5283 58.667 21.7174 59.2603 21.212C59.8536 20.7088 60.7085 20.4561 61.827 20.4561H65.8155C66.9318 20.4561 67.6987 20.7088 68.1163 21.212C68.5338 21.7174 68.6437 22.5283 68.4481 23.6468L67.5559 28.7517ZM72.219 24.9236H76.0471C77.1634 24.9236 77.9304 25.1763 78.3479 25.6795C78.7654 26.185 78.8753 26.9959 78.6819 28.1144L78.5984 28.5912C78.4028 29.7098 78.0073 30.5207 77.4139 31.0261C76.8206 31.5293 75.9658 31.782 74.8494 31.782H68.1492L70.0984 20.6143H78.9522L78.5632 22.8491H72.5794L72.219 24.9236ZM75.8098 28.1144C75.9196 27.4749 75.6581 27.1563 75.0187 27.1563H71.8279L71.4103 29.5494H74.6011C75.2406 29.5494 75.6142 29.2307 75.7262 28.5912L75.8098 28.1144ZM88.7333 31.782H85.8612L87.0588 24.9236L82.0331 31.782H79.0005L80.9519 20.6143H83.8241L82.6242 27.4749L87.6522 20.6143H90.6847L88.7333 31.782ZM93.9282 29.4702C93.7415 30.235 93.392 30.8393 92.8778 31.281C92.3636 31.7227 91.7901 31.9424 91.1506 31.9424C90.5133 31.9424 89.92 31.8897 89.375 31.782L89.7508 29.6285H90.4694C90.6715 29.6285 90.8517 29.5603 91.0078 29.4219C91.166 29.2835 91.2671 29.1143 91.3132 28.9121L93.2404 20.6143H102.094L100.145 31.782H97.2729L98.8331 22.8491H95.4819L93.9282 29.4702ZM105.738 24.4445H109.568C110.684 24.4445 111.451 24.6973 111.867 25.2027C112.284 25.7059 112.396 26.519 112.201 27.6353L112.034 28.5912C111.838 29.7098 111.445 30.5207 110.851 31.0261C110.258 31.5293 109.403 31.782 108.287 31.782H101.584L103.534 20.6143H106.406L105.738 24.4445ZM109.328 27.6353C109.44 26.9959 109.177 26.6772 108.539 26.6772H105.349L104.848 29.5494H108.038C108.676 29.5494 109.052 29.2307 109.161 28.5912L109.328 27.6353ZM120.096 31.782H117.224L119.173 20.6143H127.869L127.48 22.8491H121.656L120.096 31.782ZM135.162 23.6468C135.272 23.0074 135.009 22.6887 134.371 22.6887H131.66C131.02 22.6887 130.646 23.0074 130.534 23.6468L129.642 28.7517C129.532 29.3889 129.796 29.7098 130.433 29.7098H133.145C133.785 29.7098 134.158 29.3889 134.27 28.7517L135.162 23.6468ZM137.142 28.7517C136.947 29.868 136.553 30.6789 135.958 31.1843C135.367 31.6897 134.51 31.9424 133.393 31.9424H129.405C128.289 31.9424 127.522 31.6897 127.104 31.1843C126.687 30.6789 126.577 29.868 126.772 28.7517L127.662 23.6468C127.858 22.5283 128.251 21.7174 128.844 21.212C129.44 20.7088 130.295 20.4561 131.411 20.4561H135.4C136.516 20.4561 137.283 20.7088 137.7 21.212C138.118 21.7174 138.228 22.5283 138.032 23.6468L137.142 28.7517ZM140.959 20.6143H149.336L147.776 29.5494H148.972L148.22 33.8565H145.508L145.71 31.782H139.489L138.966 33.8565H136.255L137.006 29.5494H138.043C138.412 29.1978 138.714 28.8022 138.944 28.3605C139.177 27.9188 139.333 27.5189 139.419 27.1563L140.959 20.6143ZM144.904 29.5494L146.073 22.8491H143.122L142.186 26.8376C142.041 27.4859 141.768 28.1408 141.366 28.8C141.199 29.0769 141.023 29.3252 140.836 29.5494H144.904ZM151.378 31.782H148.266L154.446 20.6143L157.471 20.5637L157.86 21.7196L159.913 31.782H156.803L156.434 29.7889H152.444L151.378 31.782ZM153.525 27.7144H156.076L155.456 23.9655L153.525 27.7144Z" fill="white"/>
<path d="M158.145 11.4559C149.959 11.4273 140.248 10.4032 132.79 8.30902C124.617 6.01701 117.952 3.36022 108.815 2.83721C100.201 2.34717 91.5753 2.01974 81.9678 3.86565C71.6834 5.84341 62.6451 10.5197 50.0863 13.6248C37.6132 16.7123 18.9585 13.8336 6.74036 19.6152L6.86781 19.3801C19.2816 12.4228 36.9342 15.4443 49.8929 12.0118C62.9505 8.55074 72.5646 3.08553 82.983 1.18029C91.9818 -0.463454 100.686 -0.114049 108.839 0.573772C117.877 1.33411 125.013 3.50525 133.029 6.25874C140.345 8.77269 150.016 11.2581 158.145 11.4559Z" fill="white"/>
<path fill-rule="evenodd" clip-rule="evenodd" d="M158.296 11.8458C150.11 11.8172 139.993 11.7755 132.798 10.1032C124.625 7.85074 117.96 6.63771 108.823 6.12349C100.209 5.64224 92.1132 5.51259 82.5057 7.32773C72.2214 9.27033 62.6534 12.2721 50.0946 15.3245C37.5886 18.3636 18.7603 14.2631 6.54211 19.9876L6.7333 19.6404C19.1492 12.8127 36.9359 17.1132 49.9012 13.7401C62.9588 10.3405 72.573 4.9698 82.9914 3.09972C91.9902 1.48455 100.695 1.82956 108.847 2.50419C117.886 3.25135 125.021 5.38293 133.037 8.08807C141.436 11.0393 150.167 11.6502 158.296 11.8458Z" fill="black" fill-opacity="0.15"/>
<path fill-rule="evenodd" clip-rule="evenodd" d="M158.175 11.6084C149.99 11.5799 140.279 10.5734 132.82 8.51652C124.648 6.26627 117.983 3.65342 108.846 3.1414C100.231 2.66015 91.606 2.33931 81.9985 4.15226C71.7142 6.09486 62.6758 10.6877 50.117 13.74C37.6418 16.7704 18.9585 13.9927 6.74036 19.6755L6.89418 19.3942C19.3079 12.5555 36.9627 15.5266 49.9237 12.1534C62.9813 8.75385 72.5954 3.38533 83.0138 1.51305C92.0126 -0.102122 100.717 0.242886 108.87 0.917522C117.908 1.66468 125.043 3.79626 133.06 6.5014C140.375 8.9714 150.047 11.4128 158.175 11.6084Z" fill="white"/>
<path fill-rule="evenodd" clip-rule="evenodd" d="M159.279 12.1234C151.031 12.1014 141.954 12.4046 133.994 11.0708C117.405 8.2887 98.4978 7.01415 81.8252 9.45998C71.4925 10.9763 63.999 13.1496 51.4468 15.7998C38.8947 18.45 18.5721 15.8943 6.15173 20.6145L6.50333 19.9817C18.7742 14.4417 38.0091 17.2721 50.3085 14.7824C64.1089 11.9893 72.2199 8.26892 82.6889 6.80758C91.7338 5.54621 101.097 5.38139 109.321 5.9088C118.436 6.49334 125.721 7.91952 133.829 10.0335C141.233 11.9607 151.089 11.9717 159.279 12.1234Z" fill="#D22229"/>
<path d="M22.2611 41.5281C22.2523 41.5764 22.2369 41.6138 22.2149 41.6402C22.1929 41.6665 22.1534 41.6797 22.0963 41.6797H20.2284C19.9954 41.6797 19.8108 41.6468 19.6746 41.5808C19.5384 41.5171 19.4329 41.4292 19.3626 41.3193C19.2922 41.2095 19.2527 41.0864 19.2417 40.9458C19.2307 40.8051 19.2395 40.6601 19.2659 40.5063L19.657 38.2648C19.6834 38.111 19.7295 37.9637 19.7955 37.8209C19.8614 37.6803 19.9515 37.555 20.0636 37.4451C20.1778 37.3352 20.3141 37.2473 20.4745 37.1836C20.6349 37.1177 20.8195 37.0847 21.0283 37.0847H22.8588C22.9137 37.0847 22.9489 37.0957 22.9599 37.1199C22.9709 37.1441 22.9709 37.1836 22.9621 37.2342L22.8918 37.6473C22.8808 37.7044 22.8676 37.744 22.8478 37.7638C22.8302 37.7835 22.7907 37.7923 22.7335 37.7923H20.9909C20.8239 37.7923 20.7008 37.8297 20.6195 37.9044C20.5404 37.9769 20.4877 38.0846 20.4635 38.2252L20.3426 38.9131H22.3226C22.3797 38.9131 22.4127 38.924 22.4259 38.946C22.4369 38.968 22.4369 39.0097 22.4259 39.0713L22.3644 39.4317C22.3556 39.4844 22.3402 39.5218 22.3204 39.5459C22.3006 39.5701 22.2633 39.5811 22.2061 39.5811H20.2262L20.0592 40.5348C20.0372 40.6733 20.0548 40.7787 20.1141 40.8513C20.1734 40.9238 20.2811 40.9589 20.4393 40.9589H22.2215C22.283 40.9589 22.3204 40.9699 22.3314 40.9919C22.3424 41.0139 22.3424 41.0556 22.3314 41.1172L22.2611 41.5281ZM24.074 39.1943C23.9444 39.113 23.8477 39.001 23.7861 38.8647C23.7224 38.7263 23.6851 38.5658 23.6719 38.3813L23.5884 37.2078C23.584 37.188 23.5884 37.1594 23.5994 37.1265C23.6125 37.0935 23.6455 37.0781 23.7026 37.0781H24.241C24.263 37.0781 24.2872 37.0825 24.3135 37.0913C24.3399 37.1001 24.3553 37.1265 24.3553 37.1704L24.4454 38.278C24.4608 38.4164 24.4893 38.5285 24.5333 38.612C24.5794 38.6955 24.6322 38.7592 24.6915 38.801C24.7509 38.8449 24.8168 38.8735 24.8893 38.8845C24.9618 38.8955 25.0321 38.8999 25.0981 38.8999H25.7002L25.9968 37.1946C25.9968 37.1485 26.0056 37.1177 26.0254 37.1067C26.0452 37.0957 26.0759 37.0913 26.1199 37.0913H26.6847C26.7242 37.0913 26.7528 37.0957 26.7704 37.1067C26.7879 37.1177 26.7923 37.1485 26.7835 37.1946L26.4869 38.8999H27.0846C27.1483 38.8999 27.2209 38.8955 27.2956 38.8845C27.3725 38.8735 27.4472 38.8449 27.5241 38.801C27.5988 38.7592 27.6735 38.6955 27.7461 38.612C27.8208 38.5285 27.8889 38.4164 27.9526 38.278L28.4339 37.1704C28.4515 37.1265 28.4734 37.1001 28.5042 37.0913C28.5328 37.0825 28.5591 37.0781 28.5811 37.0781H29.1195C29.1744 37.0781 29.2052 37.0935 29.2052 37.1265C29.2052 37.1594 29.2008 37.188 29.1876 37.2078L28.6954 38.3813C28.6185 38.5658 28.524 38.7263 28.4119 38.8647C28.2976 39.001 28.1636 39.113 28.0098 39.1943L28.0032 39.2273C28.1108 39.2669 28.1966 39.313 28.2625 39.3613C28.3262 39.4119 28.3789 39.4712 28.4141 39.5393C28.4515 39.6075 28.4756 39.6822 28.491 39.7613C28.5042 39.8426 28.5174 39.9327 28.5262 40.0272L28.6668 41.5501C28.6734 41.5698 28.669 41.5984 28.6558 41.6314C28.6448 41.6643 28.6097 41.6797 28.5525 41.6797H27.9702C27.9482 41.6797 27.9241 41.6753 27.8999 41.6665C27.8757 41.6577 27.8603 41.6314 27.8537 41.5874L27.7175 40.1524C27.7021 40.0338 27.6801 39.9371 27.6494 39.8602C27.6208 39.7833 27.5747 39.7261 27.5175 39.6844C27.4582 39.6426 27.3879 39.6119 27.3044 39.5943C27.2187 39.5767 27.1198 39.5701 27.0055 39.5701H26.3704L26.021 41.5742C26.0122 41.6226 25.9968 41.6533 25.9749 41.6643C25.9551 41.6753 25.9243 41.6797 25.8848 41.6797H25.3266C25.2826 41.6797 25.2541 41.6753 25.2387 41.6643C25.2233 41.6533 25.2189 41.6226 25.2277 41.5742L25.5837 39.5701H24.9486C24.8344 39.5701 24.7311 39.5767 24.641 39.5943C24.5509 39.6119 24.4696 39.6426 24.3971 39.6844C24.3245 39.7261 24.2564 39.7833 24.1949 39.8602C24.1334 39.9371 24.0784 40.0338 24.0257 40.1524L23.395 41.5874C23.3752 41.6314 23.351 41.6577 23.3247 41.6665C23.2961 41.6753 23.2719 41.6797 23.2499 41.6797H22.6654C22.6083 41.6797 22.5797 41.6643 22.5797 41.6314C22.5775 41.5984 22.5841 41.5698 22.5973 41.5501L23.2675 40.0272C23.3093 39.9371 23.3532 39.8492 23.395 39.7701C23.4367 39.6888 23.4895 39.6141 23.5488 39.5459C23.6081 39.4778 23.6807 39.4185 23.7642 39.3657C23.8477 39.313 23.9488 39.2669 24.0696 39.2273L24.074 39.1943ZM32.4202 41.5281C32.4114 41.5764 32.396 41.6138 32.374 41.6402C32.352 41.6665 32.3125 41.6797 32.2554 41.6797H30.3875C30.1567 41.6797 29.9721 41.6468 29.8337 41.5808C29.6975 41.5171 29.5942 41.4292 29.5216 41.3193C29.4513 41.2095 29.4118 41.0864 29.4008 40.9458C29.3898 40.8051 29.3986 40.6601 29.425 40.5063L29.8161 38.2648C29.8425 38.111 29.8886 37.9637 29.9546 37.8209C30.0205 37.6803 30.1106 37.555 30.2249 37.4451C30.3369 37.3352 30.4732 37.2473 30.6336 37.1836C30.794 37.1177 30.9786 37.0847 31.1874 37.0847H33.0179C33.0728 37.0847 33.108 37.0957 33.119 37.1199C33.13 37.1441 33.13 37.1836 33.1212 37.2342L33.0509 37.6473C33.0399 37.7044 33.0267 37.744 33.0069 37.7638C32.9893 37.7835 32.9498 37.7923 32.8948 37.7923H31.15C30.983 37.7923 30.8599 37.8297 30.7808 37.9044C30.6995 37.9769 30.6468 38.0846 30.6226 38.2252L30.5017 38.9131H32.4817C32.5388 38.9131 32.574 38.924 32.585 38.946C32.596 38.968 32.596 39.0097 32.585 39.0713L32.5235 39.4317C32.5147 39.4844 32.4993 39.5218 32.4795 39.5459C32.4597 39.5701 32.4224 39.5811 32.3652 39.5811H30.3853L30.2205 40.5348C30.1963 40.6733 30.2139 40.7787 30.2732 40.8513C30.3325 40.9238 30.4402 40.9589 30.5984 40.9589H32.3806C32.4421 40.9589 32.4795 40.9699 32.4905 40.9919C32.5015 41.0139 32.5015 41.0556 32.4905 41.1172L32.4202 41.5281ZM33.8529 41.5413C33.842 41.6028 33.8244 41.6424 33.8024 41.6577C33.7804 41.6731 33.7387 41.6797 33.6771 41.6797H33.1783C33.13 41.6797 33.0948 41.6709 33.0728 41.6533C33.0487 41.6358 33.0421 41.5984 33.0531 41.5413L33.6222 38.2648C33.6508 38.111 33.6947 37.9637 33.7563 37.8209C33.8178 37.6803 33.9035 37.555 34.0156 37.4451C34.1254 37.3352 34.2617 37.2473 34.4221 37.1836C34.5803 37.1177 34.7737 37.0847 34.9957 37.0847H36.7976C36.8591 37.0847 36.8965 37.0957 36.9075 37.1199C36.9185 37.1441 36.9185 37.1836 36.9097 37.2342L36.8394 37.6407C36.8284 37.6978 36.813 37.7374 36.7932 37.7594C36.7712 37.7813 36.7317 37.7923 36.6745 37.7923H34.9583C34.7913 37.7923 34.6682 37.8275 34.5891 37.9C34.5078 37.9725 34.4551 38.078 34.4309 38.2186L33.8529 41.5413ZM40.4521 39.3657C40.318 40.1261 40.0499 40.715 39.6434 41.1303C39.2368 41.5457 38.6941 41.7522 38.0172 41.7522C37.3558 41.7522 36.8965 41.5523 36.6394 41.1523C36.3801 40.7524 36.3186 40.1656 36.4548 39.3921C36.5207 39.0163 36.6262 38.6823 36.7756 38.3878C36.9251 38.0956 37.1075 37.8473 37.3184 37.6451C37.5316 37.4407 37.7689 37.2869 38.0304 37.1792C38.2897 37.0715 38.5688 37.0188 38.8611 37.0188C39.1885 37.0188 39.4698 37.0715 39.7005 37.1792C39.9335 37.2869 40.1159 37.4407 40.2477 37.6451C40.3774 37.8473 40.4609 38.0956 40.4938 38.3857C40.529 38.6757 40.5158 39.0032 40.4521 39.3657ZM39.6214 39.3921C39.6588 39.1724 39.6785 38.9658 39.6807 38.7658C39.6829 38.568 39.6544 38.39 39.595 38.2384C39.5379 38.0846 39.4412 37.9637 39.305 37.8736C39.1687 37.7835 38.9841 37.7396 38.749 37.7396C38.5468 37.7396 38.3644 37.7835 38.2018 37.867C38.037 37.9527 37.8942 38.0692 37.7689 38.2186C37.6459 38.3659 37.5426 38.5395 37.4613 38.7329C37.3778 38.9284 37.3184 39.1372 37.2789 39.3591C37.2349 39.6119 37.2129 39.8426 37.2151 40.047C37.2173 40.2535 37.2503 40.4293 37.3162 40.5744C37.3821 40.7216 37.4854 40.8337 37.6217 40.9128C37.7579 40.9919 37.9381 41.0315 38.1623 41.0315C38.3842 41.0315 38.5798 40.9853 38.7468 40.893C38.9138 40.8007 39.0545 40.6799 39.1731 40.5304C39.2918 40.3788 39.3863 40.2052 39.4566 40.0074C39.5291 39.8118 39.5841 39.6053 39.6214 39.3921ZM41.0498 41.6797L40.8037 42.6444C40.7905 42.6928 40.7751 42.7235 40.7531 42.7389C40.7334 42.7543 40.707 42.7609 40.6718 42.7609H40.2389C40.2081 42.7609 40.1862 42.7543 40.1708 42.7389C40.1554 42.7235 40.151 42.6928 40.1554 42.6444L40.2961 41.2996C40.3092 41.2248 40.3356 41.1567 40.3752 41.093C40.4147 41.0293 40.485 40.9941 40.5883 40.9853L40.8279 40.9655C40.9201 40.8776 41.0015 40.7875 41.0674 40.693C41.1355 40.5985 41.1926 40.4975 41.2454 40.3876C41.2981 40.2799 41.3465 40.1568 41.3904 40.025C41.4366 39.8909 41.4827 39.7415 41.5354 39.5745L42.1661 37.4913C42.2123 37.355 42.2782 37.2539 42.3639 37.1902C42.4496 37.1243 42.5683 37.0913 42.7221 37.0913H44.7482C44.9086 37.0913 45.0141 37.1265 45.0668 37.199C45.1174 37.2715 45.1284 37.3814 45.1042 37.5308L44.5021 40.9787L44.7702 40.9919C44.8735 41.0007 44.9328 41.0293 44.9482 41.0798C44.9636 41.1303 44.9636 41.1831 44.9482 41.2402L44.6186 42.6444C44.6054 42.6928 44.59 42.7235 44.5724 42.7389C44.5548 42.7543 44.5285 42.7609 44.4933 42.7609H44.0538C44.0186 42.7609 43.9967 42.7543 43.9857 42.7389C43.9747 42.7235 43.9725 42.6928 43.9769 42.6444L44.1043 41.6797H41.0498ZM44.2648 37.7923H42.8364L42.4518 39.0911C42.3529 39.4317 42.2694 39.7064 42.2035 39.9173C42.1354 40.1261 42.076 40.2975 42.0211 40.4271C41.9684 40.559 41.92 40.6623 41.8739 40.7392C41.8277 40.8161 41.7728 40.893 41.7112 40.9721H43.711L44.2648 37.7923ZM49.1103 41.5413C49.0993 41.6028 49.0839 41.6424 49.0619 41.6577C49.0378 41.6731 48.996 41.6797 48.9345 41.6797H48.4378C48.3851 41.6797 48.3477 41.6709 48.328 41.6533C48.306 41.6358 48.3016 41.5984 48.3104 41.5413L48.6466 39.6141H46.6073L46.2711 41.5413C46.2601 41.6028 46.2425 41.6424 46.2183 41.6577C46.1942 41.6731 46.1502 41.6797 46.0909 41.6797H45.5921C45.5437 41.6797 45.5085 41.6709 45.4844 41.6533C45.4624 41.6358 45.4558 41.5984 45.4646 41.5413L46.2161 37.2276C46.2271 37.1726 46.2469 37.1353 46.2755 37.1177C46.3041 37.1001 46.3436 37.0913 46.3919 37.0913H46.8908C46.9501 37.0913 46.9919 37.0979 47.0095 37.1133C47.0292 37.1287 47.0336 37.1682 47.0226 37.2276L46.7282 38.9262H48.7675L49.0619 37.2276C49.0729 37.1726 49.0905 37.1353 49.1169 37.1177C49.1454 37.1001 49.185 37.0913 49.2377 37.0913H49.7344C49.7959 37.0913 49.8354 37.0979 49.853 37.1133C49.8684 37.1287 49.8728 37.1682 49.8618 37.2276L49.1103 41.5413ZM52.5648 40.6777H50.899L50.4551 41.5676C50.4354 41.6072 50.4112 41.6358 50.3848 41.6533C50.3585 41.6709 50.3167 41.6797 50.2662 41.6797H49.6618C49.6135 41.6797 49.5849 41.6665 49.5783 41.638C49.5695 41.6094 49.5739 41.5764 49.5937 41.5413L51.7341 37.3924C51.7671 37.3265 51.7978 37.2737 51.8264 37.2342C51.855 37.1946 51.8879 37.166 51.9253 37.1441C51.9604 37.1221 52.0022 37.1045 52.0483 37.0935C52.0923 37.0825 52.1472 37.0781 52.2088 37.0781H52.49C52.6263 37.0781 52.7186 37.0979 52.7669 37.1397C52.8175 37.1814 52.8526 37.2649 52.8746 37.3924L53.5734 41.5413C53.58 41.5764 53.5756 41.6094 53.5602 41.638C53.5448 41.6665 53.5119 41.6797 53.4635 41.6797H52.8614C52.8131 41.6797 52.7757 41.6753 52.7494 41.6643C52.723 41.6533 52.7054 41.6226 52.6966 41.5742L52.5648 40.6777ZM51.2155 39.9942H52.4725L52.323 38.8933L52.211 37.9637H52.178L51.7517 38.8735L51.2155 39.9942ZM56.8521 39.7723H56.083C55.8742 39.7723 55.694 39.814 55.5402 39.8975C55.3886 39.9788 55.2611 40.1371 55.16 40.3678L54.6282 41.5742C54.6062 41.627 54.5777 41.6577 54.5403 41.6665C54.5052 41.6753 54.4678 41.6797 54.4326 41.6797H53.8569C53.7998 41.6797 53.7712 41.6665 53.769 41.638C53.7668 41.6094 53.7734 41.5764 53.7888 41.5413L54.3623 40.2447C54.4348 40.0821 54.5227 39.9459 54.6282 39.8316C54.7337 39.7173 54.8831 39.6294 55.0765 39.5701L55.0787 39.5613C54.8458 39.4624 54.6876 39.313 54.6019 39.113C54.5162 38.9153 54.4964 38.6845 54.5425 38.4208C54.5755 38.2252 54.6414 38.045 54.7381 37.8802C54.8348 37.7176 54.9557 37.5748 55.1029 37.4583C55.2501 37.3396 55.4193 37.2473 55.6083 37.1836C55.7951 37.1177 56.0017 37.0847 56.2236 37.0847H57.7641C57.9047 37.0847 57.9948 37.1155 58.0366 37.177C58.0783 37.2364 58.0893 37.3308 58.0673 37.4583L57.3487 41.5742C57.3422 41.6226 57.3268 41.6533 57.3048 41.6643C57.2828 41.6753 57.2499 41.6797 57.2059 41.6797H56.6499C56.6016 41.6797 56.5686 41.6753 56.551 41.6643C56.5335 41.6533 56.5291 41.6226 56.5379 41.5742L56.8521 39.7723ZM55.349 38.4538C55.3182 38.6384 55.349 38.7922 55.4457 38.9174C55.5424 39.0405 55.7248 39.1042 55.9907 39.1042H56.9598L57.1861 37.8055H56.1775C56.028 37.8055 55.905 37.8275 55.8061 37.8714C55.705 37.9154 55.6237 37.9681 55.56 38.0319C55.4962 38.0956 55.4501 38.1637 55.4171 38.2406C55.3842 38.3175 55.3622 38.3879 55.349 38.4538ZM63.7127 41.5413C63.7039 41.6028 63.6864 41.6424 63.6644 41.6577C63.6424 41.6731 63.6007 41.6797 63.5391 41.6797H63.0403C62.9876 41.6797 62.9524 41.6709 62.9304 41.6533C62.9084 41.6358 62.9041 41.5984 62.915 41.5413L63.2491 39.6141H61.2098L60.8758 41.5413C60.8648 41.6028 60.8472 41.6424 60.823 41.6577C60.7966 41.6731 60.7549 41.6797 60.6934 41.6797H60.1945C60.1462 41.6797 60.111 41.6709 60.089 41.6533C60.0649 41.6358 60.0583 41.5984 60.0693 41.5413L60.8208 37.2276C60.8296 37.1726 60.8494 37.1353 60.8779 37.1177C60.9087 37.1001 60.9461 37.0913 60.9944 37.0913H61.4933C61.5548 37.0913 61.5943 37.0979 61.6141 37.1133C61.6317 37.1287 61.6361 37.1682 61.6273 37.2276L61.3306 38.9262H63.3699L63.6666 37.2276C63.6754 37.1726 63.693 37.1353 63.7215 37.1177C63.7479 37.1001 63.7875 37.0913 63.8402 37.0913H64.339C64.4006 37.0913 64.4379 37.0979 64.4555 37.1133C64.4731 37.1287 64.4753 37.1682 64.4643 37.2276L63.7127 41.5413ZM67.1672 40.6777H65.5015L65.0576 41.5676C65.0378 41.6072 65.0159 41.6358 64.9873 41.6533C64.9609 41.6709 64.9214 41.6797 64.8686 41.6797H64.2643C64.2182 41.6797 64.1896 41.6665 64.1808 41.638C64.172 41.6094 64.1786 41.5764 64.1984 41.5413L66.3366 37.3924C66.3695 37.3265 66.4003 37.2737 66.4289 37.2342C66.4596 37.1946 66.4904 37.166 66.5278 37.1441C66.5651 37.1221 66.6047 37.1045 66.6508 37.0935C66.697 37.0825 66.7497 37.0781 66.8112 37.0781H67.0925C67.2288 37.0781 67.3211 37.0979 67.3716 37.1397C67.4199 37.1814 67.4551 37.2649 67.4771 37.3924L68.1781 41.5413C68.1847 41.5764 68.1803 41.6094 68.1649 41.638C68.1473 41.6665 68.1166 41.6797 68.0682 41.6797H67.4639C67.4155 41.6797 67.3804 41.6753 67.3518 41.6643C67.3255 41.6533 67.3079 41.6226 67.2991 41.5742L67.1672 40.6777ZM65.818 39.9942H67.0771L66.9277 38.8933L66.8134 37.9637H66.7805L66.3541 38.8735L65.818 39.9942ZM72.4017 40.9589L72.6522 40.9853C72.7116 40.9941 72.7577 41.0073 72.7863 41.0249C72.817 41.0424 72.8368 41.0644 72.8478 41.0908C72.8588 41.1172 72.861 41.1435 72.8566 41.1721C72.85 41.2007 72.8456 41.2292 72.8412 41.26L72.5204 42.651C72.5072 42.6994 72.4896 42.7301 72.4698 42.7455C72.45 42.7609 72.4259 42.7675 72.3951 42.7675H71.9622C71.8963 42.7675 71.8677 42.7301 71.8765 42.651L71.9996 41.6797H69.0571C68.9252 41.6797 68.8285 41.6446 68.767 41.572C68.7055 41.4995 68.6879 41.3875 68.7143 41.2336L69.4175 37.1946C69.4263 37.1485 69.4417 37.1177 69.4636 37.1045C69.4856 37.0913 69.5186 37.0847 69.5625 37.0847H70.1119C70.1602 37.0847 70.1932 37.0913 70.2108 37.1045C70.2284 37.1177 70.2328 37.1485 70.224 37.1946L69.5647 40.9787H71.5974L72.2567 37.1946C72.2655 37.1485 72.2808 37.1177 72.3028 37.1045C72.3248 37.0913 72.3578 37.0847 72.4017 37.0847H72.9445C72.9928 37.0847 73.0258 37.0913 73.0434 37.1045C73.061 37.1177 73.0654 37.1485 73.0566 37.1946L72.4017 40.9589ZM76.8275 38.2384L76.0759 39.2339L74.408 41.3984C74.3245 41.5083 74.252 41.5808 74.1927 41.6204C74.1333 41.6599 74.0454 41.6797 73.9268 41.6797H73.696C73.5488 41.6797 73.4543 41.6468 73.4126 41.5786C73.373 41.5105 73.3642 41.4138 73.3862 41.2864L74.0982 37.1946C74.107 37.1485 74.1224 37.1177 74.1443 37.1045C74.1663 37.0913 74.1993 37.0847 74.241 37.0847H74.786C74.8343 37.0847 74.8651 37.0913 74.8805 37.1045C74.8959 37.1177 74.9003 37.1485 74.8915 37.1946L74.3135 40.5128H74.3399L75.0431 39.5943L76.755 37.3726C76.8407 37.2583 76.9132 37.1836 76.9725 37.1441C77.0319 37.1045 77.1176 37.0847 77.2318 37.0847H77.467C77.612 37.0847 77.7065 37.1155 77.7504 37.1792C77.7922 37.2429 77.8032 37.344 77.779 37.4847L77.067 41.5676C77.0582 41.616 77.0428 41.6468 77.0209 41.6599C76.9989 41.6731 76.9659 41.6797 76.922 41.6797H76.3792C76.3309 41.6797 76.2979 41.6731 76.2847 41.6599C76.2671 41.6468 76.2649 41.616 76.2737 41.5676L76.8539 38.2384H76.8275ZM82.1828 39.3657C82.051 40.1261 81.7807 40.715 81.3741 41.1303C80.9676 41.5457 80.4248 41.7522 79.748 41.7522C79.0865 41.7522 78.6273 41.5523 78.3701 41.1523C78.113 40.7524 78.0515 40.1656 78.1856 39.3921C78.2515 39.0163 78.357 38.6823 78.5086 38.3878C78.658 38.0956 78.8382 37.8473 79.0492 37.6451C79.2623 37.4407 79.4997 37.2869 79.7612 37.1792C80.0227 37.0715 80.2996 37.0188 80.5918 37.0188C80.9193 37.0188 81.2005 37.0715 81.4335 37.1792C81.6642 37.2869 81.8466 37.4407 81.9785 37.6451C82.1081 37.8473 82.1916 38.0956 82.2246 38.3857C82.2597 38.6757 82.2466 39.0032 82.1828 39.3657ZM81.3522 39.3921C81.3895 39.1724 81.4093 38.9658 81.4115 38.7658C81.4137 38.568 81.3851 38.39 81.3258 38.2384C81.2687 38.0846 81.172 37.9637 81.0357 37.8736C80.9017 37.7835 80.7149 37.7396 80.4798 37.7396C80.2776 37.7396 80.0952 37.7835 79.9326 37.867C79.77 37.9527 79.6249 38.0692 79.5019 38.2186C79.3766 38.3659 79.2733 38.5395 79.192 38.7329C79.1107 38.9284 79.0492 39.1372 79.0096 39.3591C78.9657 39.6119 78.9459 39.8426 78.9459 40.047C78.9481 40.2535 78.9811 40.4293 79.047 40.5744C79.1129 40.7216 79.2162 40.8337 79.3524 40.9128C79.4887 40.9919 79.6711 41.0315 79.893 41.0315C80.115 41.0315 80.3106 40.9853 80.4776 40.893C80.6446 40.8007 80.7874 40.6799 80.9039 40.5304C81.0225 40.3788 81.117 40.2052 81.1896 40.0074C81.2599 39.8118 81.3148 39.6053 81.3522 39.3921ZM86.1889 41.5413C86.1779 41.6028 86.1603 41.6424 86.1384 41.6577C86.1164 41.6731 86.0746 41.6797 86.0131 41.6797H85.5143C85.4615 41.6797 85.4264 41.6709 85.4044 41.6533C85.3846 41.6358 85.378 41.5984 85.389 41.5413L85.723 39.6141H83.6859L83.3497 41.5413C83.3387 41.6028 83.3211 41.6424 83.297 41.6577C83.2728 41.6731 83.2288 41.6797 83.1673 41.6797H82.6685C82.6223 41.6797 82.585 41.6709 82.563 41.6533C82.5388 41.6358 82.5322 41.5984 82.5432 41.5413L83.2948 37.2276C83.3036 37.1726 83.3233 37.1353 83.3541 37.1177C83.3827 37.1001 83.42 37.0913 83.4684 37.0913H83.9672C84.0287 37.0913 84.0683 37.0979 84.0881 37.1133C84.1079 37.1287 84.1122 37.1682 84.1012 37.2276L83.8046 38.9262H85.8439L86.1405 37.2276C86.1493 37.1726 86.1669 37.1353 86.1955 37.1177C86.2219 37.1001 86.2614 37.0913 86.3141 37.0913H86.813C86.8745 37.0913 86.9141 37.0979 86.9295 37.1133C86.947 37.1287 86.9492 37.1682 86.9404 37.2276L86.1889 41.5413ZM89.6412 40.6777H87.9755L87.5338 41.5676C87.5118 41.6072 87.4898 41.6358 87.4613 41.6533C87.4349 41.6709 87.3953 41.6797 87.3426 41.6797H86.7405C86.6921 41.6797 86.6636 41.6665 86.6548 41.638C86.646 41.6094 86.6526 41.5764 86.6723 41.5413L88.8105 37.3924C88.8435 37.3265 88.8743 37.2737 88.905 37.2342C88.9336 37.1946 88.9644 37.166 89.0017 37.1441C89.0391 37.1221 89.0786 37.1045 89.1248 37.0935C89.1709 37.0825 89.2237 37.0781 89.2852 37.0781H89.5665C89.7027 37.0781 89.795 37.0979 89.8456 37.1397C89.8939 37.1814 89.9313 37.2649 89.951 37.3924L90.652 41.5413C90.6586 41.5764 90.6542 41.6094 90.6389 41.638C90.6213 41.6665 90.5905 41.6797 90.5422 41.6797H89.9379C89.8917 41.6797 89.8543 41.6753 89.828 41.6643C89.8016 41.6533 89.7818 41.6226 89.773 41.5742L89.6412 40.6777ZM88.2919 39.9942H89.5511L89.4017 38.8933L89.2874 37.9637H89.2566L88.8281 38.8735L88.2919 39.9942ZM92.4364 37.5308C92.4738 37.3726 92.5309 37.2605 92.61 37.1924C92.6913 37.1243 92.799 37.0913 92.9331 37.0913H95.0844C95.3635 37.0913 95.4778 37.2364 95.4272 37.5308L94.724 41.5676C94.7152 41.616 94.6999 41.6468 94.6823 41.6599C94.6625 41.6731 94.6273 41.6797 94.579 41.6797H94.023C93.9791 41.6797 93.9483 41.6731 93.9307 41.6599C93.9132 41.6468 93.9088 41.616 93.9175 41.5676L94.5746 37.7923H93.1264L92.988 38.3637C92.8671 38.8515 92.7551 39.2888 92.6518 39.6734C92.5485 40.058 92.4254 40.392 92.2848 40.6777C92.1442 40.9611 91.9706 41.1941 91.7662 41.3787C91.5596 41.5611 91.2959 41.6995 90.9729 41.7918C90.9289 41.8006 90.8938 41.7984 90.8652 41.7874C90.8388 41.7764 90.8213 41.7478 90.8125 41.6995L90.7421 41.3127C90.74 41.2732 90.7443 41.2402 90.7553 41.2138C90.7685 41.1875 90.7993 41.1633 90.852 41.1435C91.0476 41.0644 91.208 40.9633 91.3333 40.8403C91.4563 40.7194 91.5662 40.5546 91.6585 40.3502C91.7508 40.1437 91.8387 39.8866 91.92 39.5789C92.0013 39.2712 92.1002 38.8889 92.2145 38.434L92.4364 37.5308ZM95.9481 41.6797C95.8074 41.6797 95.7173 41.6512 95.6756 41.5918C95.6338 41.5325 95.6228 41.438 95.647 41.3061L96.3634 37.1946C96.37 37.1485 96.3854 37.1177 96.4073 37.1045C96.4293 37.0913 96.4623 37.0847 96.5062 37.0847H97.0644C97.1127 37.0847 97.1435 37.0913 97.1589 37.1045C97.1743 37.1177 97.1765 37.1485 97.1699 37.1946L96.8908 38.7944H97.9654C98.2137 38.7944 98.4224 38.8208 98.5873 38.8713C98.7543 38.9218 98.8905 38.9878 98.996 39.0713C99.1015 39.1548 99.1806 39.2471 99.2355 39.3504C99.2905 39.4514 99.3256 39.5591 99.3454 39.6668C99.363 39.7767 99.3674 39.8822 99.3608 39.981C99.3542 40.0821 99.3454 40.1722 99.3322 40.2513C99.2949 40.4557 99.2223 40.6469 99.1103 40.8205C98.9982 40.9963 98.8619 41.1479 98.7015 41.2732C98.5389 41.4006 98.3587 41.4995 98.1609 41.572C97.961 41.6446 97.7566 41.6797 97.5412 41.6797H95.9481ZM98.5126 40.2118C98.5477 40.0008 98.5126 39.825 98.4049 39.6844C98.295 39.5415 98.1126 39.4712 97.8533 39.4712H96.7721L96.5128 40.9589H97.5808C97.739 40.9589 97.8731 40.9348 97.9851 40.8842C98.0972 40.8337 98.1895 40.77 98.2642 40.6974C98.3367 40.6227 98.3939 40.5414 98.4334 40.4535C98.473 40.3656 98.4994 40.2865 98.5126 40.2118ZM103.367 41.5413C103.356 41.6028 103.338 41.6424 103.316 41.6577C103.294 41.6731 103.253 41.6797 103.191 41.6797H102.692C102.642 41.6797 102.604 41.6709 102.582 41.6533C102.563 41.6358 102.556 41.5984 102.567 41.5413L102.903 39.6141H100.864L100.528 41.5413C100.517 41.6028 100.499 41.6424 100.475 41.6577C100.451 41.6731 100.407 41.6797 100.345 41.6797H99.8486C99.8003 41.6797 99.7651 41.6709 99.741 41.6533C99.7168 41.6358 99.7102 41.5984 99.7212 41.5413L100.473 37.2276C100.482 37.1726 100.501 37.1353 100.532 37.1177C100.561 37.1001 100.6 37.0913 100.646 37.0913H101.145C101.207 37.0913 101.246 37.0979 101.266 37.1133C101.286 37.1287 101.29 37.1682 101.279 37.2276L100.983 38.9262H103.022L103.319 37.2276C103.327 37.1726 103.347 37.1353 103.373 37.1177C103.4 37.1001 103.439 37.0913 103.492 37.0913H103.991C104.052 37.0913 104.092 37.0979 104.107 37.1133C104.125 37.1287 104.129 37.1682 104.118 37.2276L103.367 41.5413ZM106.819 40.6777H105.156L104.712 41.5676C104.692 41.6072 104.668 41.6358 104.641 41.6533C104.613 41.6709 104.573 41.6797 104.521 41.6797H103.918C103.87 41.6797 103.842 41.6665 103.833 41.638C103.826 41.6094 103.831 41.5764 103.85 41.5413L105.988 37.3924C106.024 37.3265 106.054 37.2737 106.083 37.2342C106.112 37.1946 106.145 37.166 106.18 37.1441C106.217 37.1221 106.259 37.1045 106.303 37.0935C106.349 37.0825 106.402 37.0781 106.463 37.0781H106.747C106.881 37.0781 106.973 37.0979 107.024 37.1397C107.072 37.1814 107.109 37.2649 107.131 37.3924L107.83 41.5413C107.837 41.5764 107.832 41.6094 107.817 41.638C107.801 41.6665 107.768 41.6797 107.72 41.6797H107.118C107.07 41.6797 107.032 41.6753 107.006 41.6643C106.98 41.6533 106.962 41.6226 106.953 41.5742L106.819 40.6777ZM105.47 39.9942H106.729L106.58 38.8933L106.468 37.9637H106.435L106.006 38.8735L105.47 39.9942ZM111.106 39.7723H110.34C110.131 39.7723 109.948 39.814 109.797 39.8975C109.645 39.9788 109.518 40.1371 109.417 40.3678L108.885 41.5742C108.863 41.627 108.832 41.6577 108.797 41.6665C108.76 41.6753 108.724 41.6797 108.689 41.6797H108.113C108.056 41.6797 108.028 41.6665 108.026 41.638C108.023 41.6094 108.03 41.5764 108.045 41.5413L108.619 40.2447C108.691 40.0821 108.779 39.9459 108.883 39.8316C108.988 39.7173 109.138 39.6294 109.333 39.5701V39.5613C109.102 39.4624 108.944 39.313 108.858 39.113C108.773 38.9153 108.753 38.6845 108.799 38.4208C108.832 38.2252 108.898 38.045 108.995 37.8802C109.091 37.7176 109.212 37.5748 109.359 37.4583C109.507 37.3396 109.674 37.2473 109.863 37.1836C110.052 37.1177 110.258 37.0847 110.48 37.0847H112.021C112.161 37.0847 112.251 37.1155 112.293 37.177C112.335 37.2364 112.346 37.3308 112.324 37.4583L111.605 41.5742C111.597 41.6226 111.583 41.6533 111.561 41.6643C111.539 41.6753 111.506 41.6797 111.462 41.6797H110.907C110.858 41.6797 110.825 41.6753 110.808 41.6643C110.79 41.6533 110.783 41.6226 110.792 41.5742L111.106 39.7723ZM109.606 38.4538C109.575 38.6384 109.606 38.7922 109.702 38.9174C109.799 39.0405 109.979 39.1042 110.247 39.1042H111.216L111.443 37.8055H110.434C110.285 37.8055 110.162 37.8275 110.06 37.8714C109.962 37.9154 109.88 37.9681 109.817 38.0319C109.753 38.0956 109.704 38.1637 109.672 38.2406C109.639 38.3175 109.617 38.3879 109.606 38.4538ZM117.958 41.5676C117.95 41.616 117.934 41.6468 117.912 41.6599C117.89 41.6731 117.855 41.6797 117.807 41.6797H117.264C117.22 41.6797 117.189 41.6731 117.172 41.6599C117.154 41.6468 117.15 41.616 117.158 41.5676L117.815 37.7923H115.785L115.126 41.5676C115.117 41.616 115.104 41.6468 115.082 41.6599C115.06 41.6731 115.025 41.6797 114.976 41.6797H114.425C114.381 41.6797 114.35 41.6731 114.332 41.6599C114.315 41.6468 114.31 41.616 114.319 41.5676L115.022 37.5308C115.051 37.377 115.106 37.2649 115.194 37.1924C115.28 37.1199 115.389 37.0847 115.521 37.0847H118.321C118.6 37.0847 118.714 37.232 118.662 37.5308L117.958 41.5676ZM119.626 41.5413C119.615 41.6028 119.6 41.6424 119.578 41.6577C119.556 41.6731 119.514 41.6797 119.453 41.6797H118.96C118.912 41.6797 118.877 41.6709 118.853 41.6533C118.831 41.6358 118.824 41.5984 118.833 41.5413L119.547 37.4517C119.567 37.3286 119.611 37.2364 119.675 37.1726C119.736 37.1089 119.839 37.0781 119.978 37.0781H121.538C121.758 37.0781 121.951 37.1111 122.12 37.1792C122.292 37.2473 122.428 37.344 122.536 37.4671C122.643 37.5924 122.718 37.7418 122.76 37.9132C122.802 38.0868 122.806 38.2758 122.769 38.4801C122.749 38.5988 122.705 38.7395 122.641 38.9043C122.575 39.0669 122.472 39.2251 122.334 39.3789C122.197 39.5328 122.017 39.6624 121.797 39.7701C121.578 39.8756 121.305 39.9305 120.978 39.9305H119.908L119.626 41.5413ZM121.934 38.5329C121.947 38.4582 121.949 38.3791 121.94 38.2912C121.931 38.2033 121.905 38.1241 121.857 38.0516C121.811 37.9791 121.74 37.9198 121.644 37.8714C121.547 37.8231 121.417 37.7989 121.257 37.7989H120.285L120.033 39.2537H121.015C121.29 39.2537 121.503 39.1855 121.655 39.0515C121.804 38.9153 121.898 38.7438 121.934 38.5329Z" fill="white"/>
<path d="M126.053 41.5232C126.044 41.5715 126.029 41.6089 126.007 41.6353C125.985 41.6616 125.946 41.6748 125.888 41.6748H124.02C123.788 41.6748 123.603 41.6419 123.467 41.5759C123.33 41.5122 123.225 41.4243 123.155 41.3144C123.084 41.2046 123.045 41.0815 123.034 40.9409C123.023 40.8002 123.032 40.6552 123.058 40.5014L123.449 38.2599C123.476 38.1061 123.522 37.9588 123.588 37.816C123.653 37.6754 123.744 37.5501 123.856 37.4402C123.97 37.3303 124.106 37.2425 124.267 37.1787C124.427 37.1128 124.612 37.0798 124.82 37.0798H126.649C126.706 37.0798 126.741 37.0908 126.752 37.115C126.763 37.1392 126.763 37.1787 126.754 37.2293L126.682 37.6424C126.673 37.6995 126.66 37.7391 126.64 37.7589C126.62 37.7786 126.583 37.7874 126.526 37.7874H124.783C124.616 37.7874 124.493 37.8248 124.412 37.8995C124.333 37.972 124.28 38.0797 124.256 38.2203L124.135 38.9082H126.115C126.172 38.9082 126.205 38.9192 126.218 38.9411C126.229 38.9631 126.229 39.0049 126.218 39.0664L126.156 39.4268C126.145 39.4795 126.132 39.5169 126.113 39.5411C126.093 39.5652 126.055 39.5762 125.998 39.5762H124.018L123.851 40.5299C123.829 40.6684 123.847 40.7739 123.906 40.8464C123.966 40.9189 124.073 40.9541 124.231 40.9541H126.014C126.075 40.9541 126.113 40.965 126.124 40.987C126.134 41.009 126.134 41.0507 126.124 41.1123L126.053 41.5232ZM130.962 38.5082H130.923L130.42 39.4004L129.585 40.8486C129.516 40.9628 129.457 41.0398 129.404 41.0793C129.352 41.1189 129.27 41.1386 129.16 41.1386H128.866C128.756 41.1386 128.681 41.1189 128.644 41.0793C128.604 41.0398 128.572 40.9628 128.55 40.8486L128.213 39.4663L128.011 38.5873H127.972L127.457 41.5364C127.449 41.5979 127.431 41.6375 127.405 41.6529C127.38 41.6682 127.341 41.6748 127.284 41.6748H126.811C126.763 41.6748 126.728 41.6682 126.704 41.6529C126.679 41.6375 126.675 41.5979 126.684 41.5364L127.391 37.4798C127.416 37.3435 127.46 37.2425 127.523 37.1787C127.587 37.1128 127.693 37.0798 127.842 37.0798H128.11C128.224 37.0798 128.306 37.0996 128.356 37.1392C128.407 37.1787 128.444 37.2556 128.473 37.3743L128.917 39.2949L129.147 40.3124H129.174L129.758 39.2883L130.866 37.3743C130.934 37.2556 131.002 37.1787 131.07 37.1392C131.138 37.0996 131.228 37.0798 131.343 37.0798H131.591C131.732 37.0798 131.824 37.1106 131.87 37.1721C131.916 37.2315 131.929 37.3304 131.905 37.4666L131.195 41.5364C131.184 41.5979 131.167 41.6375 131.143 41.6529C131.118 41.6682 131.077 41.6748 131.02 41.6748H130.556C130.508 41.6748 130.472 41.6682 130.45 41.6529C130.431 41.6375 130.424 41.5979 130.435 41.5364L130.962 38.5082ZM135.553 38.2335L134.801 39.229L133.134 41.3936C133.048 41.5034 132.978 41.5759 132.918 41.6155C132.859 41.6551 132.769 41.6748 132.652 41.6748H132.422C132.274 41.6748 132.18 41.6419 132.138 41.5737C132.099 41.5056 132.088 41.4089 132.11 41.2815L132.824 37.1897C132.833 37.1436 132.846 37.1128 132.87 37.0996C132.89 37.0864 132.923 37.0798 132.967 37.0798H133.512C133.56 37.0798 133.591 37.0864 133.606 37.0996C133.621 37.1128 133.626 37.1436 133.617 37.1897L133.039 40.508H133.065L133.769 39.5894L135.481 37.3677C135.566 37.2534 135.639 37.1787 135.698 37.1392C135.757 37.0996 135.843 37.0798 135.957 37.0798H136.193C136.338 37.0798 136.432 37.1106 136.474 37.1743C136.518 37.2381 136.529 37.3391 136.505 37.4798L135.793 41.5628C135.784 41.6111 135.768 41.6419 135.746 41.6551C135.724 41.6682 135.691 41.6748 135.648 41.6748H135.103C135.056 41.6748 135.023 41.6682 135.008 41.6551C134.993 41.6419 134.99 41.6111 134.999 41.5628L135.579 38.2335H135.553ZM139.46 39.7674H138.693C138.482 39.7674 138.302 39.8091 138.15 39.8927C137.999 39.974 137.871 40.1322 137.77 40.3629L137.239 41.5694C137.217 41.6221 137.186 41.6529 137.151 41.6617C137.113 41.6704 137.078 41.6748 137.043 41.6748H136.465C136.41 41.6748 136.379 41.6616 136.377 41.6331C136.377 41.6045 136.384 41.5715 136.399 41.5364L136.973 40.2399C137.043 40.0772 137.133 39.941 137.236 39.8267C137.342 39.7125 137.491 39.6246 137.687 39.5652V39.5564C137.456 39.4575 137.298 39.3081 137.212 39.1081C137.126 38.9104 137.107 38.6796 137.151 38.4159C137.186 38.2203 137.252 38.0401 137.348 37.8753C137.443 37.7127 137.566 37.5699 137.713 37.4534C137.86 37.3347 138.027 37.2425 138.216 37.1787C138.405 37.1128 138.61 37.0798 138.834 37.0798H140.374C140.515 37.0798 140.605 37.1106 140.647 37.1721C140.689 37.2315 140.697 37.326 140.675 37.4534L139.959 41.5694C139.95 41.6177 139.935 41.6485 139.915 41.6595C139.893 41.6704 139.86 41.6748 139.816 41.6748H139.258C139.21 41.6748 139.179 41.6704 139.159 41.6595C139.142 41.6485 139.137 41.6177 139.146 41.5694L139.46 39.7674ZM137.959 38.4489C137.926 38.6335 137.959 38.7873 138.056 38.9126C138.153 39.0356 138.333 39.0993 138.599 39.0993H139.57L139.796 37.8006H138.786C138.638 37.8006 138.513 37.8226 138.414 37.8665C138.315 37.9105 138.234 37.9632 138.17 38.027C138.107 38.0907 138.058 38.1588 138.025 38.2357C137.992 38.3126 137.97 38.383 137.959 38.4489Z" fill="white"/>
</svg>
