<svg width="95" height="26" viewBox="0 0 95 26" fill="none" xmlns="http://www.w3.org/2000/svg">
<path d="M1.84756 19.217H0L3.66772 12.4645H5.56224L6.91529 19.217H5.06774L4.84853 18.0119H2.48037L1.84756 19.217ZM3.12102 16.7576H4.63716L4.26791 14.4908L3.12102 16.7576ZM8.26441 12.4645H12.0535C12.6732 12.4645 13.1025 12.608 13.3439 12.8937C13.5866 13.1806 13.6571 13.6165 13.5566 14.2011C13.4901 14.5864 13.3543 14.9 13.1482 15.1419C12.9433 15.3837 12.7124 15.5511 12.4553 15.6481C12.9433 15.7902 13.2304 16.1371 13.3191 16.6898C13.3478 16.8891 13.34 17.1204 13.2943 17.3848C13.1874 18.0146 12.9616 18.4783 12.621 18.7733C12.2792 19.0696 11.7991 19.217 11.1806 19.217H7.10707L8.26441 12.4645ZM11.6386 17.0951C11.7051 16.7097 11.5486 16.5171 11.1702 16.5171H9.27562L9.04341 17.8671H10.9379C11.3176 17.8671 11.5394 17.6744 11.606 17.2877L11.6386 17.0951ZM11.8187 14.3938C11.8838 14.0085 11.7273 13.8158 11.3489 13.8158H9.73881L9.50659 15.1658H11.1167C11.4964 15.1658 11.7182 14.9731 11.7847 14.5864L11.8187 14.3938ZM16.5824 19.217H14.877L15.8034 13.8158H13.8137L14.0459 12.4645H19.7295L19.4985 13.8158H17.5087L16.5824 19.217ZM24.0587 14.2981C24.1253 13.9115 23.9687 13.7188 23.5903 13.7188H21.9802C21.6005 13.7188 21.3774 13.9115 21.3122 14.2981L20.7824 17.3848C20.7159 17.77 20.8725 17.9641 21.2522 17.9641H22.8622C23.2406 17.9641 23.4638 17.77 23.5303 17.3848L24.0587 14.2981ZM25.2343 17.3848C25.1195 18.0597 24.8846 18.55 24.5323 18.8556C24.1801 19.1612 23.6725 19.314 23.0097 19.314H20.6415C19.9787 19.314 19.5233 19.1612 19.2754 18.8556C19.0275 18.55 18.9622 18.0597 19.0771 17.3848L19.6068 14.2981C19.723 13.6218 19.9565 13.1315 20.3088 12.8259C20.6611 12.5216 21.1686 12.3688 21.8328 12.3688H24.2009C24.8638 12.3688 25.3191 12.5216 25.567 12.8259C25.8136 13.1315 25.8801 13.6218 25.7641 14.2981L25.2343 17.3848ZM31.9147 15.4554L30.1755 17.8671H28.8485L27.9365 15.4554L27.292 19.217H25.5866L26.7439 12.4645H28.5432L29.8271 16.0348L32.3335 12.4645H34.1329L32.9755 19.217H31.2702L31.9147 15.4554ZM38.9357 14.2981C39.0023 13.9115 38.8457 13.7188 38.4673 13.7188H36.8572C36.4775 13.7188 36.2544 13.9115 36.1892 14.2981L35.6594 17.3848C35.5942 17.77 35.7495 17.9641 36.1292 17.9641H37.7392C38.1176 17.9641 38.3408 17.77 38.4073 17.3848L38.9357 14.2981ZM40.1113 17.3848C39.9965 18.0597 39.763 18.55 39.4093 18.8556C39.0571 19.1612 38.5495 19.314 37.8867 19.314H35.5185C34.8557 19.314 34.4003 19.1612 34.1524 18.8556C33.9045 18.55 33.8393 18.0597 33.9541 17.3848L34.4838 14.2981C34.6 13.6218 34.8335 13.1315 35.1858 12.8259C35.5381 12.5216 36.0457 12.3688 36.7098 12.3688H39.078C39.7408 12.3688 40.1961 12.5216 40.4441 12.8259C40.6919 13.1315 40.7572 13.6218 40.6411 14.2981L40.1113 17.3848ZM42.88 15.0701H45.153C45.8158 15.0701 46.2712 15.2229 46.5191 15.5272C46.767 15.8328 46.8322 16.3231 46.7174 16.9994L46.6678 17.2877C46.5517 17.9641 46.3168 18.4544 45.9645 18.76C45.6122 19.0642 45.1047 19.217 44.4418 19.217H40.4636L41.6209 12.4645H46.8779L46.6469 13.8158H43.094L42.88 15.0701ZM45.0121 16.9994C45.0773 16.6127 44.922 16.4201 44.5424 16.4201H42.6478L42.3999 17.8671H44.2944C44.6741 17.8671 44.8959 17.6744 44.9624 17.2877L45.0121 16.9994ZM52.6854 19.217H50.9801L51.6912 15.0701L48.7072 19.217H46.9066L48.0652 12.4645H49.7706L49.0581 16.6127L52.0435 12.4645H53.844L52.6854 19.217ZM55.7699 17.8192C55.659 18.2816 55.4515 18.647 55.1462 18.9141C54.8409 19.1812 54.5004 19.314 54.1207 19.314C53.7423 19.314 53.39 19.2822 53.0664 19.217L53.2895 17.9149H53.7162C53.8362 17.9149 53.9432 17.8737 54.0359 17.79C54.1298 17.7063 54.1898 17.604 54.2172 17.4818L55.3615 12.4645H60.6183L59.4611 19.217H57.7558L58.6822 13.8158H56.6924L55.7699 17.8192ZM62.7819 14.7804H65.056C65.7186 14.7804 66.174 14.9333 66.421 15.2389C66.6686 15.5431 66.7351 16.0348 66.6193 16.7097L66.5202 17.2877C66.4038 17.9641 66.1705 18.4544 65.8178 18.76C65.4657 19.0642 64.958 19.217 64.2954 19.217H60.3155L61.4733 12.4645H63.1786L62.7819 14.7804ZM64.9135 16.7097C64.98 16.3231 64.8239 16.1304 64.445 16.1304H62.551L62.2535 17.8671H64.1476C64.5264 17.8671 64.7496 17.6744 64.8144 17.2877L64.9135 16.7097ZM71.307 19.217H69.6018L70.759 12.4645H75.9222L75.6913 13.8158H72.2333L71.307 19.217ZM80.2524 14.2981C80.3178 13.9115 80.1616 13.7188 79.7828 13.7188H78.1731C77.7931 13.7188 77.5711 13.9115 77.5046 14.2981L76.9749 17.3848C76.9096 17.77 77.0664 17.9641 77.4446 17.9641H79.0549C79.4349 17.9641 79.6563 17.77 79.7228 17.3848L80.2524 14.2981ZM81.4281 17.3848C81.3123 18.0597 81.0783 18.55 80.7251 18.8556C80.3742 19.1612 79.8653 19.314 79.2021 19.314H76.8342C76.1716 19.314 75.7162 19.1612 75.468 18.8556C75.2204 18.55 75.1551 18.0597 75.2709 17.3848L75.7993 14.2981C75.9157 13.6218 76.149 13.1315 76.5011 12.8259C76.855 12.5216 77.3627 12.3688 78.0253 12.3688H80.3938C81.0564 12.3688 81.5118 12.5216 81.7594 12.8259C82.0076 13.1315 82.0729 13.6218 81.9565 14.2981L81.4281 17.3848ZM83.6944 12.4645H88.6683L87.742 17.8671H88.4521L88.0056 20.4714H86.3954L86.5153 19.217H82.8216L82.5111 20.4714H80.9014L81.3473 17.8671H81.963C82.1821 17.6545 82.3614 17.4153 82.498 17.1482C82.6364 16.8812 82.729 16.6394 82.78 16.4201L83.6944 12.4645ZM86.0368 17.8671L86.7309 13.8158H84.9787L84.423 16.2274C84.3369 16.6194 84.1748 17.0154 83.9361 17.414C83.8369 17.5814 83.7324 17.7315 83.6214 17.8671H86.0368ZM89.8807 19.217H88.033L91.7023 12.4645L93.4984 12.4339L93.7294 13.1328L94.9483 19.217H93.1018L92.8827 18.0119H90.5136L89.8807 19.217ZM91.1555 16.7576H92.6701L92.302 14.4908L91.1555 16.7576Z" fill="white"/>
<path d="M93.8986 6.92682C89.0382 6.90953 83.2722 6.29031 78.8441 5.02406C73.9913 3.63819 70.034 2.03176 64.6089 1.71552C59.4944 1.41922 54.3728 1.22124 48.6684 2.33737C42.562 3.53322 37.1955 6.36075 29.7387 8.23825C22.3328 10.1051 11.2566 8.3645 4.00209 11.8604L4.07776 11.7182C11.4485 7.51146 21.9297 9.33841 29.6239 7.26295C37.3769 5.17021 43.0852 1.86567 49.2712 0.713663C54.6142 -0.280228 59.7823 -0.06896 64.6232 0.346932C69.9895 0.806671 74.2265 2.11945 78.986 3.78435C83.3298 5.30442 89.072 6.80722 93.8986 6.92682Z" fill="white"/>
<path fill-rule="evenodd" clip-rule="evenodd" d="M93.9882 7.16258C89.1278 7.14528 83.1208 7.12007 78.8488 6.10891C73.9961 4.74696 70.0387 4.0135 64.6137 3.70257C59.4991 3.41159 54.6922 3.33319 48.9878 4.43072C42.8815 5.60531 37.2005 7.42034 29.7437 9.26597C22.3182 11.1036 11.1389 8.6242 3.88438 12.0855L3.9979 11.8756C11.3698 7.74721 21.9307 10.3475 29.6288 8.30797C37.3818 6.25239 43.0902 3.00499 49.2761 1.87425C54.6192 0.897634 59.7877 1.10624 64.6279 1.51416C69.9948 1.96593 74.2312 3.25479 78.9907 4.89046C83.9776 6.67492 89.1616 7.04431 93.9882 7.16258Z" fill="#006DB7"/>
<path fill-rule="evenodd" clip-rule="evenodd" d="M93.9164 7.01903C89.0566 7.0018 83.2907 6.39322 78.8619 5.14952C74.0098 3.78891 70.0524 2.20905 64.6273 1.89945C59.5122 1.60846 54.3911 1.41447 48.6866 2.51067C42.5803 3.68527 37.2138 6.46233 29.757 8.30791C22.3498 10.1402 11.2566 8.4607 4.00209 11.8968L4.09342 11.7267C11.4641 7.5917 21.9466 9.38818 29.6422 7.34857C37.3951 5.29303 43.1035 2.04694 49.2894 0.914869C54.6325 -0.0617468 59.8007 0.146863 64.6416 0.554782C70.0079 1.00655 74.2443 2.29541 79.0044 3.93108C83.3476 5.42457 89.0904 6.90076 93.9164 7.01903Z" fill="white"/>
<path fill-rule="evenodd" clip-rule="evenodd" d="M94.5719 7.33044C89.6747 7.31714 84.2852 7.50047 79.5589 6.69398C69.7092 5.01178 58.4831 4.24112 48.5837 5.72C42.4487 6.63684 37.9994 7.95093 30.5465 9.55338C23.0937 11.1558 11.0272 9.61052 3.65259 12.4646L3.86135 12.082C11.1472 8.7322 22.5679 10.4436 29.8707 8.93821C38.0647 7.24935 42.8806 4.99982 49.0965 4.11622C54.4669 3.35353 60.0263 3.25387 64.9093 3.57277C70.3214 3.92622 74.6468 4.78856 79.461 6.06678C83.8571 7.23206 89.7091 7.23871 94.5719 7.33044Z" fill="#D22229"/>
<path d="M13.2175 25.11C13.2123 25.1392 13.2032 25.1618 13.1901 25.1778C13.177 25.1937 13.1536 25.2017 13.1197 25.2017H12.0106C11.8723 25.2017 11.7627 25.1818 11.6818 25.1419C11.6009 25.1034 11.5383 25.0502 11.4965 24.9838C11.4547 24.9174 11.4313 24.843 11.4248 24.7579C11.4182 24.6729 11.4235 24.5852 11.4391 24.4922L11.6713 23.1369C11.687 23.0439 11.7144 22.9548 11.7536 22.8685C11.7927 22.7834 11.8462 22.7077 11.9128 22.6412C11.9806 22.5748 12.0615 22.5216 12.1567 22.4831C12.252 22.4433 12.3616 22.4233 12.4856 22.4233H13.5724C13.605 22.4233 13.6259 22.43 13.6324 22.4446C13.639 22.4592 13.639 22.4831 13.6337 22.5137L13.592 22.7635C13.5855 22.798 13.5776 22.822 13.5659 22.8339C13.5554 22.8458 13.532 22.8512 13.498 22.8512H12.4633C12.3642 22.8512 12.2911 22.8738 12.2428 22.9189C12.1959 22.9628 12.1646 23.0279 12.1502 23.1129L12.0784 23.5289H13.254C13.2879 23.5289 13.3075 23.5355 13.3154 23.5488C13.3219 23.5621 13.3219 23.5873 13.3154 23.6245L13.2789 23.8424C13.2736 23.8743 13.2645 23.8969 13.2527 23.9115C13.241 23.9261 13.2188 23.9328 13.1849 23.9328H12.0093L11.9101 24.5094C11.8971 24.5932 11.9075 24.6569 11.9427 24.7008C11.978 24.7446 12.0419 24.7659 12.1358 24.7659H13.194C13.2305 24.7659 13.2527 24.7725 13.2593 24.7858C13.2658 24.7991 13.2658 24.8243 13.2593 24.8616L13.2175 25.11ZM14.2939 23.6989C14.217 23.6497 14.1596 23.582 14.123 23.4996C14.0852 23.4159 14.063 23.3189 14.0552 23.2073L14.0056 22.4977C14.003 22.4858 14.0056 22.4685 14.0121 22.4486C14.0199 22.4286 14.0395 22.4193 14.0734 22.4193H14.3931C14.4062 22.4193 14.4205 22.422 14.4361 22.4273C14.4518 22.4326 14.461 22.4486 14.461 22.4751L14.5145 23.1448C14.5236 23.2285 14.5405 23.2963 14.5666 23.3468C14.594 23.3973 14.6254 23.4358 14.6606 23.4611C14.6958 23.4876 14.735 23.5049 14.778 23.5116C14.8211 23.5182 14.8628 23.5209 14.902 23.5209H15.2595L15.4356 22.4898C15.4356 22.4619 15.4408 22.4433 15.4526 22.4366C15.4643 22.43 15.4826 22.4273 15.5087 22.4273H15.844C15.8675 22.4273 15.8845 22.43 15.8949 22.4366C15.9053 22.4433 15.9079 22.4619 15.9027 22.4898L15.7266 23.5209H16.0815C16.1193 23.5209 16.1624 23.5182 16.2068 23.5116C16.2524 23.5049 16.2968 23.4876 16.3424 23.4611C16.3868 23.4358 16.4311 23.3973 16.4742 23.3468C16.5186 23.2963 16.559 23.2285 16.5969 23.1448L16.8826 22.4751C16.8931 22.4486 16.9061 22.4326 16.9244 22.4273C16.9414 22.422 16.957 22.4193 16.97 22.4193H17.2897C17.3223 22.4193 17.3406 22.4286 17.3406 22.4486C17.3406 22.4685 17.338 22.4858 17.3301 22.4977L17.0379 23.2073C16.9922 23.3189 16.9361 23.4159 16.8696 23.4996C16.8017 23.582 16.7221 23.6497 16.6308 23.6989L16.6269 23.7188C16.6908 23.7428 16.7417 23.7707 16.7809 23.7999C16.8187 23.8305 16.85 23.8663 16.8709 23.9075C16.8931 23.9487 16.9074 23.9939 16.9165 24.0417C16.9244 24.0909 16.9322 24.1454 16.9374 24.2025L17.0209 25.1233C17.0248 25.1352 17.0222 25.1525 17.0144 25.1725C17.0079 25.1924 16.987 25.2017 16.953 25.2017H16.6073C16.5942 25.2017 16.5799 25.199 16.5656 25.1937C16.5512 25.1884 16.5421 25.1725 16.5381 25.1459L16.4573 24.2782C16.4481 24.2065 16.4351 24.148 16.4168 24.1015C16.3999 24.055 16.3725 24.0204 16.3385 23.9952C16.3033 23.97 16.2616 23.9514 16.212 23.9407C16.1611 23.9301 16.1024 23.9261 16.0345 23.9261H15.6574L15.45 25.1379C15.4447 25.1672 15.4356 25.1857 15.4226 25.1924C15.4108 25.199 15.3926 25.2017 15.3691 25.2017H15.0377C15.0115 25.2017 14.9946 25.199 14.9855 25.1924C14.9763 25.1857 14.9737 25.1672 14.9789 25.1379L15.1903 23.9261H14.8132C14.7454 23.9261 14.6841 23.9301 14.6306 23.9407C14.5771 23.9514 14.5288 23.97 14.4858 23.9952C14.4427 24.0204 14.4022 24.055 14.3657 24.1015C14.3292 24.148 14.2965 24.2065 14.2653 24.2782L13.8908 25.1459C13.879 25.1725 13.8647 25.1884 13.849 25.1937C13.8321 25.199 13.8177 25.2017 13.8046 25.2017H13.4576C13.4237 25.2017 13.4067 25.1924 13.4067 25.1725C13.4054 25.1525 13.4093 25.1352 13.4171 25.1233L13.8151 24.2025C13.8399 24.148 13.866 24.0949 13.8908 24.047C13.9155 23.9979 13.9469 23.9527 13.9821 23.9115C14.0173 23.8703 14.0604 23.8345 14.11 23.8025C14.1596 23.7707 14.2196 23.7428 14.2913 23.7188L14.2939 23.6989ZM19.2495 25.11C19.2443 25.1392 19.2351 25.1618 19.2221 25.1778C19.209 25.1937 19.1855 25.2017 19.1516 25.2017H18.0426C17.9055 25.2017 17.7959 25.1818 17.7138 25.1419C17.6329 25.1034 17.5716 25.0502 17.5285 24.9838C17.4867 24.9174 17.4633 24.843 17.4567 24.7579C17.4502 24.6729 17.4554 24.5852 17.4711 24.4922L17.7033 23.1369C17.719 23.0439 17.7464 22.9548 17.7855 22.8685C17.8247 22.7834 17.8782 22.7077 17.946 22.6412C18.0125 22.5748 18.0935 22.5216 18.1887 22.4831C18.2839 22.4433 18.3935 22.4233 18.5175 22.4233H19.6044C19.637 22.4233 19.6579 22.43 19.6644 22.4446C19.6709 22.4592 19.6709 22.4831 19.6657 22.5137L19.624 22.7635C19.6174 22.798 19.6096 22.822 19.5978 22.8339C19.5874 22.8458 19.5639 22.8512 19.5313 22.8512H18.4953C18.3962 22.8512 18.3231 22.8738 18.2761 22.9189C18.2278 22.9628 18.1965 23.0279 18.1822 23.1129L18.1104 23.5289H19.286C19.3199 23.5289 19.3408 23.5355 19.3473 23.5488C19.3539 23.5621 19.3539 23.5873 19.3473 23.6245L19.3108 23.8424C19.3056 23.8743 19.2965 23.8969 19.2847 23.9115C19.2729 23.9261 19.2508 23.9328 19.2168 23.9328H18.0413L17.9434 24.5094C17.9291 24.5932 17.9395 24.6569 17.9747 24.7008C18.0099 24.7446 18.0739 24.7659 18.1678 24.7659H19.226C19.2625 24.7659 19.2847 24.7725 19.2912 24.7858C19.2978 24.7991 19.2978 24.8243 19.2912 24.8616L19.2495 25.11ZM20.1002 25.118C20.0937 25.1552 20.0832 25.1791 20.0702 25.1884C20.0571 25.1977 20.0324 25.2017 19.9958 25.2017H19.6996C19.6709 25.2017 19.65 25.1964 19.637 25.1857C19.6227 25.1751 19.6187 25.1525 19.6253 25.118L19.9632 23.1369C19.9802 23.0439 20.0062 22.9548 20.0428 22.8685C20.0793 22.7834 20.1302 22.7077 20.1968 22.6412C20.262 22.5748 20.3429 22.5216 20.4381 22.4831C20.5321 22.4433 20.6469 22.4233 20.7787 22.4233H21.8486C21.8851 22.4233 21.9073 22.43 21.9138 22.4446C21.9204 22.4592 21.9204 22.4831 21.9151 22.5137L21.8734 22.7595C21.8669 22.794 21.8577 22.818 21.846 22.8313C21.8329 22.8445 21.8094 22.8512 21.7755 22.8512H20.7565C20.6573 22.8512 20.5842 22.8725 20.5373 22.9163C20.489 22.9601 20.4577 23.0239 20.4433 23.1089L20.1002 25.118ZM24.0184 23.8025C23.9388 24.2623 23.7796 24.6184 23.5383 24.8695C23.2968 25.1207 22.9746 25.2455 22.5727 25.2455C22.18 25.2455 21.9073 25.1247 21.7546 24.8828C21.6007 24.641 21.5642 24.2862 21.645 23.8185C21.6842 23.5913 21.7468 23.3893 21.8355 23.2112C21.9243 23.0346 22.0326 22.8844 22.1578 22.7622C22.2844 22.6386 22.4253 22.5456 22.5806 22.4805C22.7345 22.4153 22.9002 22.3835 23.0738 22.3835C23.2682 22.3835 23.4352 22.4153 23.5722 22.4805C23.7105 22.5456 23.8188 22.6386 23.8971 22.7622C23.9741 22.8844 24.0237 23.0346 24.0432 23.21C24.0641 23.3853 24.0563 23.5833 24.0184 23.8025ZM23.5252 23.8185C23.5474 23.6856 23.5591 23.5607 23.5604 23.4398C23.5617 23.3202 23.5448 23.2126 23.5095 23.1209C23.4756 23.0279 23.4182 22.9548 23.3373 22.9003C23.2564 22.8458 23.1468 22.8193 23.0072 22.8193C22.8872 22.8193 22.7789 22.8458 22.6823 22.8963C22.5845 22.9482 22.4997 23.0186 22.4253 23.1089C22.3523 23.198 22.2909 23.303 22.2426 23.4199C22.1931 23.5381 22.1578 23.6644 22.1343 23.7985C22.1082 23.9514 22.0952 24.0909 22.0965 24.2145C22.0978 24.3393 22.1174 24.4456 22.1565 24.5334C22.1956 24.6224 22.257 24.6902 22.3379 24.738C22.4188 24.7858 22.5257 24.8098 22.6589 24.8098C22.7906 24.8098 22.9068 24.7818 23.0059 24.726C23.1051 24.6702 23.1886 24.5972 23.259 24.5068C23.3295 24.4151 23.3856 24.3101 23.4274 24.1905C23.4704 24.0723 23.5031 23.9474 23.5252 23.8185ZM24.3733 25.2017L24.2272 25.785C24.2194 25.8143 24.2102 25.8328 24.1972 25.8421C24.1855 25.8514 24.1698 25.8554 24.1489 25.8554H23.8918C23.8736 25.8554 23.8606 25.8514 23.8514 25.8421C23.8423 25.8328 23.8397 25.8143 23.8423 25.785L23.9258 24.9719C23.9336 24.9266 23.9493 24.8855 23.9728 24.8469C23.9962 24.8084 24.038 24.7871 24.0993 24.7818L24.2416 24.7698C24.2963 24.7167 24.3446 24.6622 24.3838 24.6051C24.4242 24.5479 24.4581 24.4869 24.4895 24.4204C24.5207 24.3553 24.5495 24.2809 24.5756 24.2012C24.603 24.1201 24.6304 24.0298 24.6616 23.9288L25.0361 22.6692C25.0636 22.5868 25.1027 22.5256 25.1536 22.4871C25.2045 22.4473 25.2749 22.4273 25.3662 22.4273H26.5692C26.6645 22.4273 26.7271 22.4486 26.7584 22.4924C26.7885 22.5363 26.795 22.6027 26.7806 22.6931L26.4231 24.7778L26.5823 24.7858C26.6436 24.7911 26.6789 24.8084 26.688 24.839C26.6971 24.8695 26.6971 24.9014 26.688 24.9359L26.4923 25.785C26.4845 25.8143 26.4753 25.8328 26.4649 25.8421C26.4544 25.8514 26.4388 25.8554 26.4179 25.8554H26.1569C26.136 25.8554 26.123 25.8514 26.1165 25.8421C26.11 25.8328 26.1087 25.8143 26.1113 25.785L26.1869 25.2017H24.3733ZM26.2822 22.8512H25.4341L25.2058 23.6365C25.147 23.8424 25.0975 24.0085 25.0583 24.1361C25.0179 24.2623 24.9826 24.3659 24.95 24.4443C24.9187 24.5241 24.89 24.5865 24.8626 24.633C24.8352 24.6795 24.8026 24.726 24.766 24.7738H25.9534L26.2822 22.8512ZM29.1592 25.118C29.1527 25.1552 29.1436 25.1791 29.1305 25.1884C29.1162 25.1977 29.0914 25.2017 29.0549 25.2017H28.7599C28.7287 25.2017 28.7064 25.1964 28.6947 25.1857C28.6817 25.1751 28.6791 25.1525 28.6843 25.118L28.8839 23.9527H27.6731L27.4735 25.118C27.4669 25.1552 27.4565 25.1791 27.4421 25.1884C27.4278 25.1977 27.4017 25.2017 27.3665 25.2017H27.0703C27.0416 25.2017 27.0207 25.1964 27.0064 25.1857C26.9933 25.1751 26.9894 25.1525 26.9946 25.118L27.4408 22.5097C27.4473 22.4765 27.4591 22.4539 27.4761 22.4433C27.4931 22.4326 27.5165 22.4273 27.5452 22.4273H27.8414C27.8766 22.4273 27.9014 22.4313 27.9119 22.4406C27.9236 22.4499 27.9262 22.4738 27.9197 22.5097L27.7449 23.5368H28.9557L29.1305 22.5097C29.137 22.4765 29.1475 22.4539 29.1632 22.4433C29.1801 22.4326 29.2036 22.4273 29.2349 22.4273H29.5298C29.5663 22.4273 29.5898 22.4313 29.6002 22.4406C29.6094 22.4499 29.612 22.4738 29.6054 22.5097L29.1592 25.118ZM31.2104 24.5958H30.2213L29.9577 25.1339C29.946 25.1579 29.9317 25.1751 29.916 25.1857C29.9004 25.1964 29.8755 25.2017 29.8456 25.2017H29.4867C29.458 25.2017 29.441 25.1937 29.4371 25.1765C29.4319 25.1592 29.4345 25.1392 29.4463 25.118L30.7171 22.6094C30.7367 22.5695 30.7549 22.5376 30.7719 22.5137C30.7889 22.4898 30.8084 22.4725 30.8306 22.4592C30.8515 22.4459 30.8763 22.4353 30.9037 22.4286C30.9298 22.422 30.9624 22.4193 30.999 22.4193H31.1659C31.2469 22.4193 31.3017 22.4313 31.3303 22.4566C31.3604 22.4818 31.3812 22.5323 31.3943 22.6094L31.8092 25.118C31.8131 25.1392 31.8105 25.1592 31.8014 25.1765C31.7922 25.1937 31.7727 25.2017 31.744 25.2017H31.3865C31.3578 25.2017 31.3356 25.199 31.32 25.1924C31.3043 25.1857 31.2938 25.1672 31.2886 25.1379L31.2104 24.5958ZM30.4092 24.1826H31.1555L31.0668 23.5169L31.0003 22.9548H30.9807L30.7276 23.5049L30.4092 24.1826ZM33.7559 24.0484H33.2993C33.1753 24.0484 33.0683 24.0736 32.977 24.1241C32.887 24.1732 32.8113 24.269 32.7513 24.4084L32.4355 25.1379C32.4224 25.1698 32.4055 25.1884 32.3833 25.1937C32.3625 25.199 32.3403 25.2017 32.3194 25.2017H31.9775C31.9436 25.2017 31.9267 25.1937 31.9253 25.1765C31.924 25.1592 31.928 25.1392 31.9371 25.118L32.2776 24.334C32.3207 24.2357 32.3729 24.1533 32.4355 24.0842C32.4981 24.0151 32.5868 23.962 32.7017 23.9261L32.703 23.9208C32.5647 23.861 32.4708 23.7707 32.4199 23.6497C32.369 23.5302 32.3572 23.3906 32.3846 23.2312C32.4042 23.1129 32.4433 23.004 32.5007 22.9043C32.5582 22.806 32.6299 22.7197 32.7174 22.6492C32.8047 22.5774 32.9052 22.5216 33.0174 22.4831C33.1283 22.4433 33.251 22.4233 33.3828 22.4233H34.2974C34.3809 22.4233 34.4344 22.4419 34.4592 22.4791C34.484 22.515 34.4905 22.5721 34.4775 22.6492L34.0508 25.1379C34.0469 25.1672 34.0378 25.1857 34.0247 25.1924C34.0117 25.199 33.9921 25.2017 33.966 25.2017H33.6359C33.6072 25.2017 33.5876 25.199 33.5772 25.1924C33.5668 25.1857 33.5642 25.1672 33.5694 25.1379L33.7559 24.0484ZM32.8635 23.2511C32.8452 23.3628 32.8635 23.4558 32.9209 23.5315C32.9783 23.6059 33.0866 23.6444 33.2445 23.6444H33.8199L33.9542 22.8591H33.3554C33.2666 22.8591 33.1936 22.8725 33.1349 22.899C33.0748 22.9256 33.0266 22.9575 32.9888 22.996C32.9509 23.0346 32.9235 23.0757 32.9039 23.1222C32.8844 23.1687 32.8713 23.2113 32.8635 23.2511ZM37.8294 25.118C37.8242 25.1552 37.8138 25.1791 37.8007 25.1884C37.7877 25.1977 37.7629 25.2017 37.7263 25.2017H37.4302C37.3989 25.2017 37.378 25.1964 37.3649 25.1857C37.3519 25.1751 37.3493 25.1525 37.3558 25.118L37.5542 23.9527H36.3433L36.145 25.118C36.1385 25.1552 36.128 25.1791 36.1137 25.1884C36.098 25.1977 36.0732 25.2017 36.0367 25.2017H35.7405C35.7118 25.2017 35.6909 25.1964 35.6778 25.1857C35.6635 25.1751 35.6596 25.1525 35.6661 25.118L36.1124 22.5097C36.1176 22.4765 36.1293 22.4539 36.1463 22.4433C36.1645 22.4326 36.1867 22.4273 36.2154 22.4273H36.5117C36.5482 22.4273 36.5716 22.4313 36.5834 22.4406C36.5938 22.4499 36.5964 22.4738 36.5912 22.5097L36.415 23.5368H37.6259L37.802 22.5097C37.8073 22.4765 37.8177 22.4539 37.8346 22.4433C37.8503 22.4326 37.8738 22.4273 37.9051 22.4273H38.2013C38.2379 22.4273 38.26 22.4313 38.2705 22.4406C38.2809 22.4499 38.2822 22.4738 38.2757 22.5097L37.8294 25.118ZM39.8805 24.5958H38.8915L38.628 25.1339C38.6162 25.1579 38.6032 25.1751 38.5862 25.1857C38.5705 25.1964 38.5471 25.2017 38.5157 25.2017H38.1569C38.1296 25.2017 38.1126 25.1937 38.1074 25.1765C38.1021 25.1592 38.106 25.1392 38.1178 25.118L39.3874 22.6094C39.4069 22.5695 39.4252 22.5376 39.4422 22.5137C39.4604 22.4898 39.4787 22.4725 39.5009 22.4592C39.523 22.4459 39.5465 22.4353 39.5739 22.4286C39.6013 22.422 39.6326 22.4193 39.6692 22.4193H39.8362C39.9171 22.4193 39.9719 22.4313 40.0019 22.4566C40.0306 22.4818 40.0515 22.5323 40.0645 22.6094L40.4807 25.118C40.4847 25.1392 40.4821 25.1592 40.4729 25.1765C40.4625 25.1937 40.4442 25.2017 40.4155 25.2017H40.0567C40.028 25.2017 40.0071 25.199 39.9901 25.1924C39.9745 25.1857 39.9641 25.1672 39.9588 25.1379L39.8805 24.5958ZM39.0794 24.1826H39.827L39.7383 23.5169L39.6705 22.9548H39.6509L39.3978 23.5049L39.0794 24.1826ZM42.9885 24.7659L43.1372 24.7818C43.1725 24.7871 43.1999 24.7951 43.2169 24.8058C43.2351 24.8163 43.2469 24.8296 43.2534 24.8456C43.2599 24.8616 43.2612 24.8775 43.2586 24.8948C43.2547 24.9121 43.2521 24.9293 43.2495 24.9479L43.059 25.789C43.0512 25.8183 43.0407 25.8368 43.0289 25.8461C43.0172 25.8554 43.0029 25.8594 42.9846 25.8594H42.7276C42.6884 25.8594 42.6715 25.8368 42.6767 25.789L42.7498 25.2017H41.0027C40.9243 25.2017 40.8669 25.1805 40.8304 25.1366C40.7939 25.0927 40.7834 25.025 40.7991 24.932L41.2166 22.4898C41.2219 22.4619 41.231 22.4433 41.244 22.4353C41.2571 22.4273 41.2767 22.4233 41.3027 22.4233H41.6289C41.6576 22.4233 41.6772 22.4273 41.6877 22.4353C41.6981 22.4433 41.7007 22.4619 41.6955 22.4898L41.304 24.7778H42.511L42.9024 22.4898C42.9076 22.4619 42.9167 22.4433 42.9298 22.4353C42.9429 22.4273 42.9624 22.4233 42.9885 22.4233H43.3108C43.3395 22.4233 43.3591 22.4273 43.3695 22.4353C43.38 22.4433 43.3826 22.4619 43.3774 22.4898L42.9885 24.7659ZM45.6163 23.1209L45.1701 23.7228L44.1798 25.0316C44.1302 25.0981 44.0871 25.1419 44.0519 25.1658C44.0167 25.1897 43.9645 25.2017 43.894 25.2017H43.757C43.6696 25.2017 43.6135 25.1818 43.5887 25.1406C43.5652 25.0994 43.56 25.0409 43.5731 24.9639L43.9958 22.4898C44.001 22.4619 44.0102 22.4433 44.0232 22.4353C44.0362 22.4273 44.0558 22.4233 44.0806 22.4233H44.4042C44.4329 22.4233 44.4512 22.4273 44.4603 22.4353C44.4694 22.4433 44.4721 22.4619 44.4668 22.4898L44.1236 24.4961H44.1393L44.5568 23.9407L45.5733 22.5974C45.6242 22.5283 45.6672 22.4831 45.7024 22.4592C45.7377 22.4353 45.7886 22.4233 45.8564 22.4233H45.996C46.0821 22.4233 46.1382 22.4419 46.1643 22.4805C46.1891 22.519 46.1957 22.5801 46.1813 22.6652L45.7585 25.1339C45.7533 25.1632 45.7442 25.1818 45.7312 25.1897C45.7181 25.1977 45.6985 25.2017 45.6724 25.2017H45.3502C45.3215 25.2017 45.3019 25.1977 45.294 25.1897C45.2836 25.1818 45.2823 25.1632 45.2875 25.1339L45.632 23.1209H45.6163ZM48.796 23.8025C48.7178 24.2623 48.5573 24.6184 48.3159 24.8695C48.0745 25.1207 47.7522 25.2455 47.3504 25.2455C46.9576 25.2455 46.685 25.1247 46.5322 24.8828C46.3796 24.641 46.3431 24.2862 46.4227 23.8185C46.4618 23.5913 46.5245 23.3893 46.6145 23.2112C46.7032 23.0346 46.8102 22.8844 46.9355 22.7622C47.062 22.6386 47.2029 22.5456 47.3582 22.4805C47.5135 22.4153 47.6779 22.3835 47.8514 22.3835C48.0458 22.3835 48.2128 22.4153 48.3511 22.4805C48.4881 22.5456 48.5964 22.6386 48.6747 22.7622C48.7517 22.8844 48.8013 23.0346 48.8209 23.21C48.8417 23.3853 48.8339 23.5833 48.796 23.8025ZM48.3029 23.8185C48.325 23.6856 48.3368 23.5607 48.3381 23.4398C48.3394 23.3202 48.3224 23.2126 48.2872 23.1209C48.2533 23.0279 48.1959 22.9548 48.1149 22.9003C48.0354 22.8458 47.9245 22.8193 47.7849 22.8193C47.6648 22.8193 47.5565 22.8458 47.46 22.8963C47.3634 22.9482 47.2773 23.0186 47.2043 23.1089C47.1299 23.198 47.0685 23.303 47.0203 23.4199C46.972 23.5381 46.9355 23.6644 46.912 23.7985C46.8859 23.9514 46.8741 24.0909 46.8741 24.2145C46.8754 24.3393 46.895 24.4456 46.9342 24.5334C46.9733 24.6224 47.0346 24.6902 47.1155 24.738C47.1964 24.7858 47.3047 24.8098 47.4365 24.8098C47.5683 24.8098 47.6844 24.7818 47.7836 24.726C47.8827 24.6702 47.9675 24.5972 48.0367 24.5068C48.1071 24.4151 48.1632 24.3101 48.2063 24.1905C48.2481 24.0723 48.2807 23.9474 48.3029 23.8185ZM51.1747 25.118C51.1681 25.1552 51.1577 25.1791 51.1447 25.1884C51.1316 25.1977 51.1068 25.2017 51.0703 25.2017H50.7741C50.7428 25.2017 50.7219 25.1964 50.7089 25.1857C50.6971 25.1751 50.6932 25.1525 50.6997 25.118L50.898 23.9527H49.6885L49.4889 25.118C49.4824 25.1552 49.4719 25.1791 49.4576 25.1884C49.4432 25.1977 49.4171 25.2017 49.3806 25.2017H49.0844C49.057 25.2017 49.0348 25.1964 49.0218 25.1857C49.0074 25.1751 49.0035 25.1525 49.01 25.118L49.4563 22.5097C49.4615 22.4765 49.4732 22.4539 49.4915 22.4433C49.5085 22.4326 49.5306 22.4273 49.5594 22.4273H49.8555C49.892 22.4273 49.9156 22.4313 49.9273 22.4406C49.9391 22.4499 49.9416 22.4738 49.9351 22.5097L49.759 23.5368H50.9698L51.1459 22.5097C51.1512 22.4765 51.1616 22.4539 51.1786 22.4433C51.1943 22.4326 51.2177 22.4273 51.249 22.4273H51.5452C51.5817 22.4273 51.6052 22.4313 51.6144 22.4406C51.6248 22.4499 51.6261 22.4738 51.6209 22.5097L51.1747 25.118ZM53.2245 24.5958H52.2355L51.9732 25.1339C51.9601 25.1579 51.9471 25.1751 51.9302 25.1857C51.9145 25.1964 51.891 25.2017 51.8597 25.2017H51.5022C51.4734 25.2017 51.4565 25.1937 51.4513 25.1765C51.4461 25.1592 51.45 25.1392 51.4617 25.118L52.7312 22.6094C52.7508 22.5695 52.7691 22.5376 52.7873 22.5137C52.8043 22.4898 52.8226 22.4725 52.8448 22.4592C52.867 22.4459 52.8904 22.4353 52.9179 22.4286C52.9452 22.422 52.9766 22.4193 53.0131 22.4193H53.1801C53.261 22.4193 53.3158 22.4313 53.3458 22.4566C53.3745 22.4818 53.3967 22.5323 53.4084 22.6094L53.8246 25.118C53.8285 25.1392 53.8259 25.1592 53.8169 25.1765C53.8064 25.1937 53.7881 25.2017 53.7594 25.2017H53.4006C53.3732 25.2017 53.351 25.199 53.3354 25.1924C53.3197 25.1857 53.3079 25.1672 53.3027 25.1379L53.2245 24.5958ZM52.4233 24.1826H53.171L53.0823 23.5169L53.0144 22.9548H52.9961L52.7417 23.5049L52.4233 24.1826ZM54.8841 22.6931C54.9063 22.5974 54.9402 22.5296 54.9872 22.4884C55.0355 22.4473 55.0994 22.4273 55.179 22.4273H56.4564C56.6221 22.4273 56.6899 22.515 56.6599 22.6931L56.2424 25.1339C56.2372 25.1632 56.2281 25.1818 56.2176 25.1897C56.2059 25.1977 56.185 25.2017 56.1563 25.2017H55.8262C55.8001 25.2017 55.7818 25.1977 55.7714 25.1897C55.761 25.1818 55.7584 25.1632 55.7635 25.1339L56.1537 22.8512H55.2938L55.2116 23.1967C55.1398 23.4916 55.0733 23.756 55.012 23.9886C54.9507 24.2211 54.8776 24.4231 54.7941 24.5958C54.7106 24.7672 54.6075 24.9081 54.4862 25.0197C54.3635 25.13 54.2069 25.2137 54.0152 25.2695C53.989 25.2748 53.9682 25.2735 53.9512 25.2668C53.9355 25.2602 53.9252 25.2429 53.9199 25.2137L53.8781 24.9798C53.8769 24.9559 53.8794 24.9359 53.886 24.92C53.8938 24.9041 53.9121 24.8894 53.9434 24.8775C54.0595 24.8296 54.1548 24.7685 54.2291 24.6941C54.3022 24.621 54.3674 24.5214 54.4222 24.3978C54.477 24.2729 54.5292 24.1175 54.5775 23.9314C54.6258 23.7454 54.6845 23.5142 54.7524 23.2392L54.8841 22.6931ZM56.9692 25.2017C56.8856 25.2017 56.8321 25.1845 56.8074 25.1485C56.7826 25.1127 56.776 25.0555 56.7904 24.9758L57.2158 22.4898C57.2197 22.4619 57.2288 22.4433 57.2418 22.4353C57.2549 22.4273 57.2745 22.4233 57.3006 22.4233H57.632C57.6607 22.4233 57.679 22.4273 57.6881 22.4353C57.6972 22.4433 57.6986 22.4619 57.6946 22.4898L57.5289 23.4571H58.167C58.3144 23.4571 58.4383 23.4731 58.5362 23.5036C58.6354 23.5341 58.7162 23.574 58.7789 23.6245C58.8415 23.675 58.8885 23.7308 58.9211 23.7933C58.9537 23.8543 58.9746 23.9195 58.9863 23.9846C58.9968 24.051 58.9994 24.1148 58.9955 24.1746C58.9916 24.2357 58.9863 24.2902 58.9785 24.338C58.9564 24.4616 58.9132 24.5772 58.8467 24.6822C58.7802 24.7885 58.6993 24.8801 58.604 24.9559C58.5075 25.0329 58.4005 25.0927 58.283 25.1366C58.1643 25.1805 58.043 25.2017 57.9151 25.2017H56.9692ZM58.4919 24.3141C58.5127 24.1865 58.4919 24.0802 58.4279 23.9952C58.3627 23.9088 58.2544 23.8663 58.1004 23.8663H57.4584L57.3045 24.7659H57.9386C58.0325 24.7659 58.1122 24.7513 58.1787 24.7207C58.2452 24.6902 58.3 24.6516 58.3444 24.6077C58.3874 24.5626 58.4214 24.5134 58.4448 24.4603C58.4683 24.4071 58.484 24.3593 58.4919 24.3141ZM61.3742 25.118C61.3676 25.1552 61.3569 25.1791 61.3439 25.1884C61.3308 25.1977 61.3065 25.2017 61.2697 25.2017H60.9734C60.9437 25.2017 60.9211 25.1964 60.9081 25.1857C60.8968 25.1751 60.8926 25.1525 60.8992 25.118L61.0987 23.9527H59.888L59.6885 25.118C59.682 25.1552 59.6713 25.1791 59.657 25.1884C59.6428 25.1977 59.6167 25.2017 59.5798 25.2017H59.2851C59.2564 25.2017 59.2355 25.1964 59.2212 25.1857C59.2069 25.1751 59.2029 25.1525 59.2095 25.118L59.6558 22.5097C59.6612 22.4765 59.6725 22.4539 59.6909 22.4433C59.7081 22.4326 59.7313 22.4273 59.7586 22.4273H60.0548C60.0917 22.4273 60.1148 22.4313 60.1267 22.4406C60.1386 22.4499 60.1409 22.4738 60.1344 22.5097L59.9587 23.5368H61.1693L61.3457 22.5097C61.3504 22.4765 61.3623 22.4539 61.3777 22.4433C61.3938 22.4326 61.4169 22.4273 61.4484 22.4273H61.7447C61.7809 22.4273 61.8046 22.4313 61.8135 22.4406C61.8242 22.4499 61.8266 22.4738 61.8201 22.5097L61.3742 25.118ZM63.4238 24.5958H62.4364L62.1728 25.1339C62.1609 25.1579 62.1466 25.1751 62.1306 25.1857C62.114 25.1964 62.0902 25.2017 62.0593 25.2017H61.7013C61.6728 25.2017 61.6562 25.1937 61.6508 25.1765C61.6467 25.1592 61.6497 25.1392 61.6609 25.118L62.9304 22.6094C62.9518 22.5695 62.9696 22.5376 62.9868 22.5137C63.004 22.4898 63.0236 22.4725 63.0444 22.4592C63.0663 22.4459 63.0913 22.4353 63.1174 22.4286C63.1447 22.422 63.1762 22.4193 63.2124 22.4193H63.381C63.4606 22.4193 63.5152 22.4313 63.5455 22.4566C63.574 22.4818 63.596 22.5323 63.609 22.6094L64.0241 25.118C64.0282 25.1392 64.0253 25.1592 64.0163 25.1765C64.0068 25.1937 63.9873 25.2017 63.9588 25.2017H63.6013C63.5728 25.2017 63.5503 25.199 63.5348 25.1924C63.5194 25.1857 63.5087 25.1672 63.5033 25.1379L63.4238 24.5958ZM62.6228 24.1826H63.3703L63.2819 23.5169L63.2154 22.9548H63.1958L62.9411 23.5049L62.6228 24.1826ZM65.9692 24.0484H65.5144C65.3903 24.0484 65.2816 24.0736 65.192 24.1241C65.1017 24.1732 65.0263 24.269 64.9663 24.4084L64.6505 25.1379C64.6374 25.1698 64.619 25.1884 64.5982 25.1937C64.5763 25.199 64.5549 25.2017 64.5341 25.2017H64.1921C64.1583 25.2017 64.1416 25.1937 64.1404 25.1765C64.1387 25.1592 64.1428 25.1392 64.1517 25.118L64.4925 24.334C64.5353 24.2357 64.5875 24.1533 64.6493 24.0842C64.7116 24.0151 64.8007 23.962 64.9165 23.9261V23.9208C64.7793 23.861 64.6855 23.7707 64.6344 23.6497C64.584 23.5302 64.5721 23.3906 64.5994 23.2312C64.619 23.1129 64.6582 23.004 64.7158 22.9043C64.7728 22.806 64.8446 22.7197 64.9319 22.6492C65.0198 22.5774 65.1189 22.5216 65.2312 22.4831C65.3434 22.4433 65.4657 22.4233 65.5975 22.4233H66.5125C66.5956 22.4233 66.649 22.4419 66.674 22.4791C66.6989 22.515 66.7054 22.5721 66.6924 22.6492L66.2655 25.1379C66.2607 25.1672 66.2524 25.1857 66.2393 25.1924C66.2263 25.199 66.2067 25.2017 66.1806 25.2017H65.851C65.8219 25.2017 65.8023 25.199 65.7923 25.1924C65.7816 25.1857 65.7774 25.1672 65.7828 25.1379L65.9692 24.0484ZM65.0786 23.2511C65.0602 23.3628 65.0786 23.4558 65.1356 23.5315C65.1932 23.6059 65.3 23.6444 65.4592 23.6444H66.0345L66.1693 22.8591H65.5702C65.4817 22.8591 65.4087 22.8725 65.3481 22.899C65.2899 22.9256 65.2413 22.9575 65.2038 22.996C65.1658 23.0346 65.1368 23.0757 65.1178 23.1222C65.0982 23.1687 65.0851 23.2113 65.0786 23.2511ZM70.0376 25.1339C70.0328 25.1632 70.0233 25.1818 70.0103 25.1897C69.9972 25.1977 69.9764 25.2017 69.9479 25.2017H69.6255C69.5994 25.2017 69.581 25.1977 69.5709 25.1897C69.5602 25.1818 69.5578 25.1632 69.5626 25.1339L69.9527 22.8512H68.7474L68.3561 25.1339C68.3507 25.1632 68.343 25.1818 68.3299 25.1897C68.3169 25.1977 68.2961 25.2017 68.267 25.2017H67.9398C67.9137 25.2017 67.8953 25.1977 67.8846 25.1897C67.8745 25.1818 67.8716 25.1632 67.8769 25.1339L68.2943 22.6931C68.3115 22.6001 68.3442 22.5323 68.3964 22.4884C68.4475 22.4446 68.5122 22.4233 68.5906 22.4233H70.2531C70.4188 22.4233 70.4864 22.5124 70.4556 22.6931L70.0376 25.1339ZM71.0279 25.118C71.0214 25.1552 71.0125 25.1791 70.9994 25.1884C70.9864 25.1977 70.9614 25.2017 70.9252 25.2017H70.6325C70.604 25.2017 70.5832 25.1964 70.569 25.1857C70.5559 25.1751 70.5518 25.1525 70.5571 25.118L70.981 22.6452C70.9929 22.5708 71.019 22.515 71.057 22.4765C71.0933 22.4379 71.1544 22.4193 71.2369 22.4193H72.1632C72.2938 22.4193 72.4084 22.4393 72.5088 22.4805C72.6109 22.5216 72.6916 22.5801 72.7558 22.6545C72.8193 22.7303 72.8638 22.8206 72.8888 22.9243C72.9137 23.0292 72.9161 23.1435 72.8941 23.267C72.8822 23.3388 72.8561 23.4239 72.8181 23.5235C72.7789 23.6219 72.7178 23.7175 72.6358 23.8105C72.5545 23.9036 72.4476 23.9819 72.317 24.047C72.1869 24.1108 72.0248 24.144 71.8307 24.144H71.1954L71.0279 25.118ZM72.3983 23.299C72.406 23.2538 72.4072 23.206 72.4019 23.1528C72.3965 23.0997 72.3811 23.0518 72.3526 23.008C72.3253 22.9641 72.2831 22.9283 72.2261 22.899C72.1685 22.8698 72.0914 22.8552 71.9964 22.8552H71.4192L71.2696 23.7348H71.8527C72.0159 23.7348 72.1424 23.6936 72.2327 23.6125C72.3211 23.5302 72.3769 23.4265 72.3983 23.299Z" fill="white"/>
<path d="M74.844 25.1071C74.8386 25.1363 74.8297 25.1589 74.8167 25.1748C74.8036 25.1907 74.7804 25.1987 74.746 25.1987H73.6369C73.4991 25.1987 73.3893 25.1788 73.3085 25.1389C73.2272 25.1004 73.1648 25.0473 73.1233 24.9808C73.0811 24.9144 73.058 24.84 73.0514 24.755C73.0449 24.6699 73.0503 24.5822 73.0657 24.4892L73.2978 23.1339C73.3139 23.0409 73.3412 22.9518 73.3804 22.8655C73.419 22.7805 73.473 22.7047 73.5395 22.6383C73.6072 22.5718 73.6879 22.5187 73.7835 22.4801C73.8785 22.4403 73.9884 22.4203 74.1119 22.4203H75.1978C75.2317 22.4203 75.2525 22.427 75.259 22.4416C75.2655 22.4563 75.2655 22.4802 75.2602 22.5107L75.2174 22.7605C75.2121 22.7951 75.2044 22.819 75.1925 22.831C75.1806 22.8429 75.1587 22.8482 75.1248 22.8482H74.0899C73.9907 22.8482 73.9177 22.8708 73.8696 22.916C73.8227 22.9598 73.7912 23.0249 73.777 23.11L73.7052 23.5259H74.8808C74.9146 23.5259 74.9342 23.5325 74.9419 23.5458C74.9485 23.5591 74.9485 23.5844 74.9419 23.6215L74.9051 23.8395C74.8986 23.8713 74.8909 23.8939 74.8796 23.9086C74.8677 23.9231 74.8452 23.9298 74.8113 23.9298H73.6357L73.5365 24.5065C73.5235 24.5902 73.5342 24.654 73.5692 24.6978C73.6048 24.7417 73.6683 24.763 73.7622 24.763H74.8208C74.857 24.763 74.8796 24.7695 74.8861 24.7828C74.8921 24.7961 74.8921 24.8214 74.8861 24.8586L74.844 25.1071ZM77.7587 23.284H77.7355L77.4369 23.8235L76.9411 24.6992C76.9001 24.7682 76.8651 24.8148 76.8336 24.8387C76.8028 24.8626 76.7541 24.8745 76.6888 24.8745H76.5142C76.4489 24.8745 76.4043 24.8626 76.3824 24.8387C76.3586 24.8148 76.3396 24.7682 76.3266 24.6992L76.1265 23.8634L76.0065 23.3319H75.9834L75.6776 25.115C75.6728 25.1522 75.6622 25.1762 75.6467 25.1855C75.6319 25.1947 75.6087 25.1987 75.5749 25.1987H75.294C75.2655 25.1987 75.2448 25.1947 75.2305 25.1855C75.2157 25.1762 75.2133 25.1522 75.2186 25.115L75.6384 22.6622C75.6532 22.5798 75.6794 22.5187 75.7168 22.4801C75.7548 22.4403 75.8177 22.4203 75.9062 22.4203H76.0653C76.133 22.4203 76.1817 22.4323 76.2114 22.4563C76.2417 22.4801 76.2636 22.5266 76.2808 22.5984L76.5445 23.7597L76.681 24.3749H76.6971L77.0438 23.7557L77.7017 22.5984C77.7421 22.5266 77.7824 22.4801 77.8228 22.4563C77.8632 22.4323 77.9166 22.4203 77.9849 22.4203H78.1322C78.2159 22.4203 78.2705 22.439 78.2978 22.4762C78.3251 22.5121 78.3328 22.5719 78.3186 22.6542L77.897 25.115C77.8905 25.1522 77.8804 25.1762 77.8662 25.1855C77.8513 25.1947 77.827 25.1987 77.7931 25.1987H77.5176C77.4891 25.1987 77.4677 25.1947 77.4547 25.1855C77.4434 25.1762 77.4392 25.1522 77.4458 25.115L77.7587 23.284ZM80.4846 23.1179L80.0381 23.7199L79.0483 25.0287C78.9972 25.0951 78.9557 25.1389 78.9201 25.1629C78.885 25.1868 78.8316 25.1987 78.7621 25.1987H78.6256C78.5377 25.1987 78.4819 25.1788 78.4569 25.1376C78.4338 25.0964 78.4272 25.0379 78.4403 24.9609L78.8642 22.4868C78.8696 22.4589 78.8773 22.4403 78.8916 22.4323C78.9034 22.4243 78.923 22.4203 78.9491 22.4203H79.2727C79.3012 22.4203 79.3197 22.4243 79.3286 22.4323C79.3375 22.4403 79.3404 22.4589 79.3351 22.4868L78.9919 24.4932H79.0073L79.4253 23.9378L80.4418 22.5944C80.4923 22.5253 80.5356 22.4801 80.5707 22.4563C80.6057 22.4323 80.6568 22.4203 80.7245 22.4203H80.8646C80.9507 22.4203 81.0065 22.439 81.0314 22.4775C81.0576 22.5161 81.0641 22.5771 81.0498 22.6622L80.6271 25.131C80.6217 25.1602 80.6122 25.1788 80.5992 25.1868C80.5861 25.1947 80.5665 25.1987 80.541 25.1987H80.2174C80.1895 25.1987 80.1699 25.1947 80.161 25.1868C80.1521 25.1788 80.1503 25.1602 80.1556 25.131L80.5 23.1179H80.4846ZM82.8044 24.0454H82.349C82.2237 24.0454 82.1168 24.0706 82.0266 24.1212C81.9369 24.1703 81.8609 24.266 81.8009 24.4055L81.4856 25.135C81.4726 25.1669 81.4542 25.1855 81.4334 25.1908C81.4108 25.1961 81.3901 25.1987 81.3693 25.1987H81.0261C80.9934 25.1987 80.975 25.1907 80.9738 25.1735C80.9738 25.1562 80.978 25.1363 80.9869 25.115L81.3277 24.3311C81.3693 24.2327 81.4227 24.1504 81.4839 24.0813C81.5468 24.0122 81.6353 23.9591 81.7516 23.9232V23.9178C81.6145 23.858 81.5207 23.7677 81.4696 23.6468C81.4186 23.5272 81.4073 23.3877 81.4334 23.2282C81.4542 23.11 81.4934 23.001 81.5504 22.9014C81.6068 22.803 81.6798 22.7167 81.7671 22.6462C81.8544 22.5745 81.9535 22.5187 82.0657 22.4801C82.178 22.4403 82.2997 22.4203 82.4327 22.4203H83.347C83.4308 22.4203 83.4842 22.439 83.5091 22.4762C83.5341 22.5121 83.5388 22.5692 83.5258 22.6462L83.1006 25.135C83.0953 25.1642 83.0864 25.1828 83.0745 25.1895C83.0615 25.1961 83.0419 25.1987 83.0157 25.1987H82.6844C82.6559 25.1987 82.6375 25.1961 82.6256 25.1895C82.6156 25.1828 82.6126 25.1642 82.6179 25.135L82.8044 24.0454ZM81.9131 23.2482C81.8936 23.3598 81.9131 23.4528 81.9707 23.5286C82.0283 23.6029 82.1352 23.6414 82.2931 23.6414H82.8697L83.0039 22.8562H82.4042C82.3163 22.8562 82.2421 22.8695 82.1833 22.896C82.1245 22.9226 82.0764 22.9545 82.0384 22.9931C82.001 23.0316 81.9719 23.0728 81.9523 23.1193C81.9327 23.1658 81.9197 23.2083 81.9131 23.2482Z" fill="white"/>
</svg>
