<svg width="25" height="28" viewBox="0 0 25 28" fill="none" xmlns="http://www.w3.org/2000/svg">
<path opacity="0.54" fill-rule="evenodd" clip-rule="evenodd" d="M20.8333 19.2771C19.7778 19.2771 18.8333 19.6878 18.1111 20.3313L8.20833 14.6495C8.27778 14.3346 8.33333 14.0197 8.33333 13.6911C8.33333 13.3625 8.27778 13.0476 8.20833 12.7327L18 7.1057C18.75 7.79025 19.7361 8.21468 20.8333 8.21468C23.1389 8.21468 25 6.38007 25 4.10734C25 1.83461 23.1389 0 20.8333 0C18.5278 0 16.6667 1.83461 16.6667 4.10734C16.6667 4.43593 16.7222 4.75082 16.7917 5.06572L7 10.6928C6.25 10.0082 5.26389 9.58379 4.16667 9.58379C1.86111 9.58379 0 11.4184 0 13.6911C0 15.9639 1.86111 17.7985 4.16667 17.7985C5.26389 17.7985 6.25 17.374 7 16.6895L16.8889 22.385C16.8194 22.6725 16.7778 22.9737 16.7778 23.2749C16.7778 25.4792 18.5972 27.2727 20.8333 27.2727C23.0694 27.2727 24.8889 25.4792 24.8889 23.2749C24.8889 21.0706 23.0694 19.2771 20.8333 19.2771Z" fill="#001E50"/>
</svg>
